<svg xmlns="http://www.w3.org/2000/svg" shape-rendering="geometricPrecision" text-rendering="geometricPrecision" image-rendering="optimizeQuality" fill-rule="evenodd" clip-rule="evenodd" viewBox="0 0 21000 6700"><g><path fill="#FEFEFE" fill-opacity=".259" d="M19808 4529c180 0 336 45 462 139 88 63 144 135 172 215 25 75 31 167 10 239-26 92-85 172-182 239-126 92-282 139-462 139h-605v-971h605zm-605-1211h609c152 0 278 39 387 119 215 155 215 419 0 579-104 79-235 118-387 118h-609v-816zm-538-20v2398c0 56 31 103 80 139 55 39 119 60 190 60h877c332 0 610-88 841-262 194-139 306-307 335-495 18-88 14-184-4-274-41-217-192-399-444-546 192-124 307-280 344-458 20-104 16-216-12-319-43-143-144-272-295-382-211-155-466-231-765-231h-877c-71 0-135 16-190 55-45 33-71 72-76 117-8 63-4 135-4 198zm-13376-3083v1965c0 43 17 102 92 147 56 35 123 51 195 51 69 0 139-16 192-51 76-45 88-104 88-147v-1965c0-35-8-80-62-127-79-63-206-80-316-53-88 20-189 75-189 180zm11473 2756c63 37 110 104 110 184v3398c0 106-194 147-270 147-112 0-268-53-268-184v-760c-177 79-365 126-568 135-76 4-155 4-235 0-272-23-511-103-714-244-231-163-349-362-349-589v-1940c0-131 159-190 270-190 110 0 270 59 270 190v1940c0 127 61 236 188 323 112 80 247 127 402 135 60 0 115 0 174-4 137-12 264-55 368-131 131-87 194-196 194-323v-1940c0-98 93-155 176-178 43-12 84-12 127-12 45 4 88 16 125 43zm740 2646v-2503c0-131 159-186 270-186 108 0 268 55 268 186v2591c0 130-156 190-268 190-102 0-245-47-266-164-8-35-4-76-4-114zm-9317-2689h-1628c-71 0-133 20-184 59-76 64-88 135-88 184 0 51 12 123 88 182 51 41 113 68 184 68h552v2226c0 152 133 248 272 248 143 0 274-96 274-248v-2226h550c72-6 135-27 184-68 72-59 90-131 90-182 0-41-10-92-51-141-51-63-123-98-202-102h-41zm-191-2893h-1486c-72 0-139 24-198 65-76 64-92 139-92 190 0 56 16 129 96 188 30 31 67 47 110 60 21 4 41 8 62 8h609v1625c0 31 10 72 47 111 24 24 59 45 92 57 43 18 92 27 147 27 72 0 135-17 188-47 78-49 94-105 94-148v-1625h638c59-8 109-29 151-68 97-79 123-222 48-327-27-36-64-67-107-88-75-34-163-28-243-28-55 4-104 0-156 0zm-4739 910v-516h485c120 0 225 29 314 84 37 25 68 49 88 80 37 57 43 133 0 192-16 31-47 55-88 80-83 55-194 80-314 80h-485zm0 400h485c145 0 272 33 378 96 80 50 125 105 137 168 10 33 10 72 0 100-12 64-57 119-137 170-106 65-233 100-378 100h-485v-634zm1417-63c-51-55-115-102-194-147v-4c126-84 206-186 239-299 35-102 31-219-8-319-45-110-135-210-268-294-194-123-429-184-701-184h-765c-76 0-139 16-194 49-76 51-92 110-92 147v1944c0 43 16 103 92 148 55 34 118 51 194 51h769c294 0 550-68 760-203 201-128 311-286 323-470 13-159-43-307-155-419zm-4210 1705c-59-47-139-67-215-59-92 12-171 67-214 147-17 29-17 100-17 139v2495c39 110 143 186 264 186 123 0 229-76 266-190v-1757l785 1059c68 68 160 103 254 92 96-8 180-57 235-133l785-971v1710c28 114 135 190 251 190 115 0 219-76 248-190v-2587c-25-98-109-170-213-186-102-12-202 35-258 119l-1040 1486-8 12-11-12s-920-1302-993-1407c-39-47-72-106-119-143zm3807 669c0-23 4-39 8-59 9-48 29-84 54-123 34-49 79-84 134-117 72-43 152-71 236-84 79-14 167-14 249 0 137 21 272 84 360 193 20 24 39 55 51 83 12 35 20 72 20 107v439h-1112v-439zm-533 80v1973c0 139 155 194 267 194 111 0 266-59 266-194v-1231h1112v1231c0 135 156 194 264 194 111 0 270-59 270-194v-1902c0-98 8-194-16-290-25-84-64-168-119-239-112-152-280-262-507-330-123-36-253-61-382-65-76 0-152 0-231 8-80 8-156 21-231 41-283 72-481 206-597 399-60 94-96 202-96 315v90zm5737 363v-793h609c151 0 282 39 386 115 72 49 119 104 144 167 26 60 30 139 8 201-21 75-72 139-152 198-104 76-235 112-386 112h-609zm-534-801v2402c0 139 155 195 270 195 108 0 264-60 264-195v-1222h609c299 0 556-72 769-223 135-96 223-205 274-327 53-139 59-303 4-442-47-121-139-235-278-335-213-147-470-223-769-223h-873c-76 0-139 16-194 55-41 29-66 63-76 100-12 68 0 143 0 215zm3576-1550s264 113 718 113c450 4 705-25 979-25 366 0 853 143 853 143s-319-43-881 17c-557 55-845 34-1055-21-215-55-614-227-614-227zm3554-1257c828-53 1370 632 2079 916 920 370 2026 239 2807 950-382-167-793-314-1206-390-550-102-1112-51-1654-211-697-214-1286-760-2039-840-529-59-907 286-1402 374-346 59-630-59-928-206-434-215-1127-710-1648-606-503 103-328 757-710 1013-255 173-509 75-597-236 168 139 303 160 413 111-55-76-131-176-202-227-123-84-168-68-256-96-76-27-174-82-231-131-16-12-35-27-47-43 63 114 92 245 131 374 45 160 104 358 290 403 149 43 360 27 515 55 330 64 741 286 880 661-174-160-614-307-849-338-219-24-450 14-660-61-215-82-319-262-379-468-59-184-67-428-222-567-307-268-761-39-886 291-163 431 184 885 374 1096-421-185-744-702-619-1148 90-335 362-621 728-650 307-4 354 25 597 197 125 75 315 194 450 231 92 20 155 16 247 90 59 40 160 175 227 272 207-180 307-618 411-845 303-660 932-427 1470-184 485 217 967 634 1521 630 493-8 888-370 1374-413 4 0 13-4 21-4zm-14049 1034c-33-4-71-4-100 0-63 13-119 49-155 105-17 24-39 51-64 75-135 156-298 231-505 231-200 0-364-75-495-231-126-143-192-311-192-499 0-194 66-362 192-505 131-155 295-227 495-227 207-4 370 72 505 223 25 25 47 55 68 84 47 68 122 104 202 104 96 0 180-49 223-137 41-83 33-182-23-257-32-41-67-84-104-125-231-243-525-366-867-366-339 0-630 123-865 366-223 235-335 515-335 840 0 323 112 603 335 841 227 239 522 360 865 360 346 0 636-121 867-364 21-23 37-39 53-60 55-67 98-131 103-202 8-121-84-235-203-256zm10172 2131c0-23 4-43 8-64 8-43 29-83 53-118 35-49 82-88 135-117 72-43 152-71 236-84 79-14 169-14 249 0 137 21 276 84 360 193 22 24 39 51 51 83 12 35 20 68 20 107v435h-1112v-435zm-534 45v1999c0 135 156 195 268 195 111 0 266-60 266-195v-1226h1112v1226c0 135 156 195 266 195 109 0 268-60 268-195v-1897c0-98 8-194-16-286-25-88-64-168-119-239-112-152-280-262-503-330-127-36-255-61-382-65-80 0-156 0-235 8-76 8-156 21-231 41-279 72-479 206-597 395-29 47-52 94-68 147-24 75-29 147-29 227z"/><g><g fill="#9B8259"><path d="M16733 3296v24h12v12h108v-12h96v12h120v-24h12v-24h-12v12h-12v12h-72v-12h-24v-36h-12v-48h-12v-12h12v-24h-12v-24h-12v12h-48v12h-36v12h12v36h12v36h-12v12h-12v12h-12v12zM19673 3392h-24v12h-24v12h-24v12h-36v12h-24v60h-12v60h84v-12h12v-12h12v-24h12v-24h24zM16613 3404h24v12h36v12h24v60h-12v12h-24v-12h-12v-12h-12v-12h-12v-12h-12v-48zm120 36h-12v-24h-36v-12h-36v-12h-24v-12h-12v12h-12v84h12v36h24v24h12v12h12v12h60v-12h12v-108zM17105 3428v24h12v24h48v-12h24v-48h12v-12h-36v12h-24v12z"/></g><g fill="#B6AB9A"><path d="M16985 2984h-12v72h12v96h-12v108h12v12h12v12h24v12h12v-12h12v-12h24v-300h-12v72h-36v12h-12v-24h-24zM16733 2996v276h12v12h60v-12h12v-12h12v-12h-12v-96h-12v-12h12v-24h12v-24h12v-192h-12v132h-12v36h-24v36h12v12h-12v12h-36v-24h-12v-108zM19277 3044h-12v24h-12v24h-12v-12h-12v-12h-12v-36h-12v108h12v12h36v-12h48v-24h-12v-48h-12zM17633 4904h24v12h12v-96h24v-12h12v-12h-36v-12h-12v48h-12v48h-12zM18881 1052v-24h12v-12h-12v-12h-36v24h12v12h12v12z"/></g><g fill="#868686"><path d="M17741 5228v12h12v12h12v24h12v12h12v12h12v12h36v12h12v-24h12v-12h12v-12h12v-12h12v-12h12v-12h12v-12h12v-12h24v-24h24v-12h-12v-24h24v-12h24v-12h12v-12h12v-24h12v-24h24v-12h12v-24h-12v12h-36v24h-12v12h-24v12h-48v12h-12v24h-12v12h-24v24h-36v12h-24v12h-24v12h-12v12h-12v12h-12v12h-24v-12zM18305 4856h12v48h12v-12h12v-24h36v-24h12v-12h24v-12h36v-24h12v12h12v-12h12v-12h24v-12h-12v-12h24v-12h12v-12h24v-12h60v-12h-12v-24h-12v-12h-12v-12h-12v-12h-12v-12h-24v24h-36v24h-12v24h-36v24h-12v24h-48v24h-24v12h-12v36h-12v12h-36zM19025 992v12h24v12h12v12h12v12h12v12h12v12h24v12h12v12h12v12h12v24h24v12h12v12h12v12h12v12h12v12h12v24h24v12h12v24h-12v48h12v12h12v-24h12v-24h-12v-36h36v-12h-12v-12h-12v-12h-12v-24h-12v-12h-24v-12h-12v-12h-12v-12h-12v-12h-12v-12h-12v-12h-12v-12h-12v-12h-12v-12h-12v-12h-12v-12h-24v-12h-12v-12h-12v-12h-12v-12h-12v-12h-12v36zM16853 3020h12v-12h12v12h24v12h-12v12h36v-24h12v-24h-12v-36h12v-24h-12v-24h24v-12h-12v-84h-12v-24h-12v-12h-12v24h-12v12h-12v24h-12v12h24v12h-12v12h-12v36h-12zM17981 5444h24v-24h-12v-12h12v-24h12v-24h12v-36h12v-48h12v-24h12v-12h12v-36h-24v36h-12v24h-24v24h-12v12h-12v12h12v12h-12v24h-12v12h-12v12h12v12h-12v36h12z"/></g><g fill="#958774"><path d="M19517 3272v24h-84v-12h-12v-12h-12v-60h-12v-36h24v-60h-12v-24h-12v-12h-12v-12h-12v-12h-36v24h-12v60h-12v60h12v36h-12v60h-12v12h144v12h72v-12h24v-12h12v-1140h-12v1116zM19073 3416h12v48h12v12h12v12h12v24h12v12h36v-12h12v-72h-12v-12h-36v-12h-36v-12h-24zM16853 3020v24h12v12h-12v12h12v24h48v12h24v-12h12v-24h-12v-48h-12v24h-36v-12h12v-12h-24v-12h-12v12z"/></g><g fill="#BBA477"><path d="M16985 3560v-12h12v-36h-12v-12h-24v-36h-12v-12h-180v-12h-36v108h-12v12h-60v-12h-12v-12h-12v-24h-24v-36h-12v-84h12v-12h-12v-12h-12v-12h-24v216h24v12h12v12h12v-12h36v12h84v-12h192v-12h48v-12zM19289 3476h12v36h-12v24h60v12h24v12h60v-36h-12v-24h-12v-36h-120zM17105 3428h-12v108h60v-24h36v-12h12v-84h-12v48h-24v12h-48v-24h-12z"/></g><g fill="#C9B38F"><path d="M19289 3464h120v36h12v24h12v36h-60v-12h-24v-12h-60v-24h12v-36h-12v-12zm-216-60h24v12h36v12h36v12h12v72h-12v12h-36v-12h-12v-24h-12v-12h-12v-12h-12v-48h-12v-12zm0-24v12h-24v12h12v72h12v24h12v24h12v24h12v12h108v-12h12v12h12v12h48v12h204v12h48v12h12v12h12v-24h-12v-12h-36v-24h-24v-36h24v-12h12v-12h12v-60h24v-12h36v-12h24v-12h24v-12h24v-12h12v-12h-24v12h-24v12h-24v12h-36v12h-36v12h-72v12h-204v-12h-60v-12h-60v-12h-36v-12h-24v-12h-12zM16949 3452v12h12v36h24v12h12v36h-12v12h156v-24h-48v-96h-24v12h-12v24h-48v-24zM19277 3140h-24v12h-36v-12h-12v120h12v12h60v-36h-12v-36h12zM19457 3296h60v-60h-12v-24h-12v12h-12v-12h-12v-24h-12v72h-12v24h12z"/></g><g fill="#CBCBCB"><path d="M19529 2180v-48h12v-24h12v-132h-24v36h-12v24h-12v48h-12v24h-24v-12h-12v-48h-12v-48h-12v-48h-12v-12h-12v-12h-12v-12h-12v-60h-12v-108h-12v-12h-12v-12h-12v-24h-12v-12h-12v36h12v60h12v72h12v48h12v12h12v12h12v60h12v48h12v36h24v48h12v108h12v276h12v252h12v-12h24v-12h12v-552zM16829 1556h-12v12h-24v12h-12v24h-12v24h-12v12h-12v12h-12v36h-12v60h-12v216h12v48h12v48h12v60h12v48h12v24h12v-12h12v-24h12v-60h12v-24h12v-48h12v-48h12v-48h12v-24h12v-48h12v-36h12v-36h12v-36h24v-60h12v-24h12v-12h12v-12h12v-12h12v-24h12v-24h12v-60h12v-12h12v-12h12v-12h12v-24h-12v12h-12v12h-24v12h-12v48h-12v12h-12v12h-12v12h-12v24h-12v24h-12v12h-12v48h-12v12h-12v60h-12v36h-12v48h-12v24h-24v60h-12v36h-12v36h-12v12h-12v12h-24v-12h-12v-36h-12v-24h-12v-24h-12v-168h12v-12h12v-72h12v-12h24v-48h12v-12h24v-12h12zM18233 5012v-12h36v12h12v12h48v12h24v12h48v12h48v12h24v24h12v12h12v-12h12v12h12v12h12v-12h12v12h24v12h12v12h12v-12h24v12h12v-12h12v-36h12v-12h12v-12h12v-24h-12v-12h-156v-12h-12v-12h-84v-12h-108v-12h-84v-24h-12v300h12v-252zM19217 1460v-24h-12v-12h-24v-12h-12v-24h-12v-24h-12v-12h-12v-12h-12v-24h-12v-12h-12v-24h-12v-12h-24v-12h-12v-12h-12v-12h-12v-12h-24v-12h-12v-12h-36v-12h-24v-12h-36v12h12v12h24v24h12v12h12v12h24v12h12v12h24v12h12v12h12v12h48v12h12v12h12v48h12v12h12v12h12v12h12v12h12v12h12v12h12v12zM18185 4724h60v-60h12v-48h12v-24h12v-84h12v-12h-72v84h-12v132h-24zM19325 1424v24h12v12h12v36h-12v-12h-24v24h12v24h12v24h24v12h12v12h12v-84h24v-12h-12v-24h-12v-12h-12v-24h-12v-12h-12v-24h-12v36zM16865 1484h24v84h12v-12h12v-24h12v-12h24v-24h-24v12h-12v-60h24v-12h12v-12h12v-12h-24v-36h-12v24h-12v24h-12v12h-12v24h-12v12h-12zM19121 1016v-24h48v-12h-24v-12h-12v-12h-12v-12h-48v-12h-12v-12h-24v36h24v12h12v12h12v12h12v12h12v12zM17069 1292h12v24h12v-12h12v-12h12v-12h12v-12h12v-12h12v-12h12v-12h12v-24h-12v-24h-12v12h-12v24h-12v12h-12v12h-12v12h-12v12h-24z"/></g><g fill="#020202"><path d="M18101 4748v12h-12v12h-12v12h-12v24h-12v108h12v12h12v12h12v12h24v12h12v12h12v300h12v12h48v-12h12v-312h24v-12h24v-12h12v-12h12v-24h12v-96h-12v-24h-12v-12h-12v-12h-12v-12h-24v-12h-96v12zM19637 3344v12h-12v12h-24v12h-36v12h-60v12h-288v-12h-48v-12h-36v-12h-24v-12h-24v-12h-12v-12h-12v-12h-12v-24h-12v-48h-12v12h-12v72h12v12h12v12h12v12h12v12h24v12h24v12h36v12h60v12h60v12h204v-12h72v-12h36v-12h36v-12h24v-12h24v-12h24v-12h12v-12h12v-24h12v-60h-12v-24h-24v72h-12v24h-12v12z"/></g><g fill="#776A57"><path d="M18329 1328v12h48v-12h72v24h36v12h24v12h36v12h12v12h24v12h48v12h36v12h12v12h24v-12h-12v-12h-12v-12h-24v-24h-12v-24h-36v-12h-12v-12h-36v-12h-24v-12h-24v-12h-24v-12h-24v-12h-60v-12h-48v-12h-12v-12h-72v-12h-12v-12h-12v12h-36v-24h12v-12h-24v-12h-12v-12h-12v-12h-108v12h-12v-12h-132v84h-24v12h-24v12h-12v12h-36v24h-24v12h-24v12h-12v12h72v-12h24v-12h72v-12h48v-12h312v12h36v12h36v12zM17645 5096v-84h12v24h12v36h12v-48h-12v-108h-12v-12h-24v192zM18665 4808v24h12v36h12v72h12v-12h24v-36h-12v-72h-12v-24h-12v12z"/></g><g fill="#564837"><path d="M17093 3056v228h-12v24h-12v24h-120v-12h-96v12h-108v-12h-12v-24h-12v-12h-12v-120h-12v-84h-12v12h-12v48h-12v-12h-12v12h-12v-12h-12v12h-24v168h-12v12h12v12h12v12h24v-60h36v12h12v12h12v12h12v24h12v12h24v12h12v12h312v-12h24v-12h12v-12h48v12h24v-12h12v-12h12v-12h12v-12h12v-12h-12v-1044h-12v876h-12v24h-12v24h-12v24h-12v-24h-12v-48h-24v-12h12v-24h-12v-36zM19061 3116v192h-12v12h12v12h24v-36h48v12h36v12h12v24h12v12h324v-12h-84v-12h-216v-12h-24v-12h-12v-12h-12v-276h-12v72h-24v24h-12v12h-24v24h-24v-12h12v-12h-12v-12zM19553 3284v24h12v-12h24v-12h12v-24h24v24h12v60h24v-12h12v-24h12v-12h-12v-60h-12v-132h-12v12h-72v-12h-12v180zM17921 4484v12h-24v36h12v12h12v-12h12v-12h24v-12h24v-36h-36v12z"/></g><g fill="#737373"><path d="M19553 3296h-12v12h-24v12h-72v-12h-228v-12h-12v-12h-12v-180h-12v-1104h-12v-84h-12v-24h-12v-60h-12v-36h-12v-12h24v36h24v24h12v36h12v24h12v-12h12v24h12v36h12v12h24v-48h12v-12h-12v-132h-12v-84h-12v-36h-24v-60h-24v-24h-12v-12h-12v24h12v36h24v48h12v24h12v144h-24v-24h-12v-24h-12v-12h-12v-36h-24v-12h-12v-24h-12v-12h-12v-12h-12v-12h-12v-24h-12v-36h-24v-12h-12v-12h-12v-12h-12v-12h-12v-12h-12v-12h-12v-12h-12v-24h-24v-12h-12v-24h-24v-12h-24v-12h-12v-24h-12v-12h-24v-24h-12v-12h-24v-12h-24v-24h-24v-12h-24v-24h-24v-12h-48v-24h-48v-12h-24v-12h-48v24h24v24h36v12h12v12h24v12h24v12h24v36h24v12h24v12h48v12h24v36h24v24h12v12h24v12h12v12h12v12h24v24h12v24h12v12h12v12h12v24h24v12h12v12h12v24h12v24h12v12h12v12h12v48h24v24h12v24h12v60h12v36h12v12h12v36h12v36h12v96h12v1224h12v12h12v12h24v12h216v12h108v-24h12zM17225 1580v24h-12v12h-12v12h-12v24h-12v24h-12v24h-12v12h-12v24h-12v36h-12v24h-12v24h-24v12h-12v24h-12v12h-12v24h-24v-24h-12v-96h12v-36h12v-48h12v-48h12v-36h-12v12h-12v48h-12v12h-12v24h-12v36h-12v60h-12v60h-24v120h-12v24h12v48h-24v12h-12v12h12v12h-12v12h60v-12h12v-24h12v-24h12v-12h12v-12h12v-36h24v-12h-24v-12h36v-12h12v-48h12v-24h12v60h-12v96h-12v1260h12v-1212h12v-36h12v-36h12v-108h12v-12h12v-48h12v-36h24v-48h12v-12h12v-24h12v-24h12v-24h12v-12h12v-24h12v-12h12v-12h12v-12h12v-36h12v-12h12v-12h36v-12h12v-12h12v-24h12v-12h12v-12h12v-24h24v-12h12v-12h24v-12h12v-12h12v-12h12v-12h24v-24h-12v-12h-24v12h-12v12h-12v12h-36v24h-24v12h-12v24h-36v12h-12v24h-12v24h-36v24h-12v12h-12v24h-24v12h-24v24zM16781 1352h12v-12h12v24h-12v24h-12v24h-12v24h-12v24h-12v36h12v36h-12v24h-12v60h12v-12h12v-12h12v-24h48v-12h12v-12h12v-36h-60v-60h12v-24h12v-24h12v-24h36v-60h24v-12h12v-24h-12v12h-12v-24h12v-24h12v-12h12v-24h12v-12h12v-24h12v-12h12v-12h12v-12h12v-24h12v-12h12v-12h12v-12h12v-12h12v-12h12v-12h12v-12h12v-12h12v-12h12v-12h12v-12h-24v-12h-12v12h-12v12h-12v12h-12v12h-12v12h-12v12h-12v12h-12v12h-12v24h-12v12h-12v12h-12v12h-12v12h-12v12h-12v24h-12v12h-12v12h-12v24h-12v12h-12v24h-12v12h-12v24h-12v12h-12v24h-12zM17945 4832v-24h12v12h12v-12h24v12h12v12h24v-12h24v-12h-24v-36h-12v-12h-24v-12h-12v-24h-12v-24h-36v-12h-12v-12h-12v-12h-12v-12h-12v-48h-24v12h-12v12h-12v12h-12v12h-12v12h-12v12h-12v24h-12v24h24v12h12v12h12v24h36v12h24v12h12v36zM17165 1184v24h24v-12h12v-12h24v-12h12v-12h12v-12h12v-12h12v-12h24v-12h12v-12h12v-12h24v-12h12v-12h12v-12h12v-12h24v-12h24v-12h12v-12h24v-12h24v-12h24v-12h36v-12h12v-24h12v-12h-24v12h-36v12h-24v12h-12v12h-24v12h-24v12h-24v12h-12v12h-24v12h-12v12h-24v12h-12v12h-24v12h-12v12h-12v12h-12v12h-24v12h-12v12h-12v12h-12v12h-12v12h-12v12zM17321 944h12v12h-12v12h-12v12h24v-12h24v-12h24v-12h12v-12h24v-12h24v-12h12v-12h24v-12h24v-12h24v-12h24v-12h24v-12h24v-12h-72v12h-24v12h-24v12h-24v12h-24v12h-24v12h-24v12h-24v12h-12v12h-24zM16901 1280h24v48h12v36h12v-24h12v-12h12v-48h-12v-24h12v-36h-36v12h-12v12h-12v12h-12z"/></g><g fill="#353434"><path d="M17465 1208v24h-12v12h-24v12h-12v12h-24v12h-12v12h-12v12h-24v24h-12v12h-24v12h-12v12h-12v12h-24v36h-12v12h-12v12h-12v12h-12v24h-12v12h-12v12h-12v24h-12v24h-12v12h-24v24h-12v36h-12v24h-12v36h-12v24h-12v36h24v-24h12v-12h12v-12h12v-24h24v-24h24v-24h12v-12h12v-24h24v-12h12v-24h12v-12h12v-12h12v-24h12v-12h24v-12h12v-12h12v-24h12v-12h24v-12h12v-12h12v-12h12v-12h24v-24h24v-12h12v-12h12v-12h24v-12h24v-36h36v-12h36v-12h12v-24h36v-12h24v-12h24v-12h60v-12h36v-12h60v-12h12v-12h72v-12h312v12h84v12h120v12h36v12h24v12h72v-36h-24v-36h-36v-12h-36v-12h-36v-12h-48v-12h-372v12h-72v12h-156v12h-60v12h-36v12h-48v12h-72v12h-24v12h-12v12h-24v12h-12v12h-24v12zM19109 1508h-12v-24h-12v-12h-24v-24h-12v-24h-24v-12h-12v-12h-12v-12h-12v-12h-12v-12h-12v-12h-12v-12h-12v-24h-24v-12h-12v-12h-36v-12h-24v-12h-24v-12h-24v-12h-12v-12h-84v24h24v12h12v12h24v24h24v12h24v12h12v24h24v12h12v12h24v12h12v12h24v12h12v12h12v12h12v12h12v12h12v12h12v12h12v12h12v12h12v24h24v12h12v24h12v12h12v24h12v12h12v24h24v12h12v12h12v12h12v-60h-12v-24h-12v-24h-12v-12h-12v-36h-12zM19337 1388h12v24h12v12h12v24h12v12h12v24h12v12h72v-36h-12v-36h-12v-36h-12v-12h-12v-12h-12v-36h-24v-24h-12v-12h-12v-12h-36v48h-12v48h12zM17297 896v12h-24v24h-12v24h48v-12h12v-12h24v-12h12v-12h24v-12h24v-12h24v-12h24v-12h24v-12h24v-12h24v-12h36v-12h24v-12h24v-12h12v-12h-120v12h-24v12h-24v12h-36v24h-24v12h-12v12h-24v12h-24v12h-12v12zM17909 4544v-12h-12v-24h-12v12h-24v12h-12v12h-12v12h-12v12h-24v12h-12v12h-12v12h-12v24h-12v12h-12v12h-12v24h-12v24h12v-12h36v-12h12v-12h12v-24h12v-12h12v-12h12v-12h12v-12h12v-12h12v-12h24v-12h12v-12z"/></g><g fill="#CEAC71"><path d="M17225 3296v-48h24v24h12v-36h12v-36h12v12h48v-12h36v-12h-24v-12h36v-12h12v12h12v-12h12v12h60v48h24v36h-12v36h12v-12h12v36h-12v12h-12v12h24v12h36v12h12v12h12v24h24v12h36v-12h-24v-12h-12v-12h24v-24h-24v-36h12v-36h12v-12h-12v-12h12v-12h-12v-24h12v-24h12v-12h12v-12h12v-24h-12v-12h24v-24h12v-12h-12v-12h12v-12h12v-12h12v-24h12v-12h24v-12h-84v-12h-360v12h-60v-852h-12v12h-12v1116zM18749 3008v12h132v12h-12v12h12v24h-12v36h-12v36h-12v12h-24v12h-12v12h-12v12h-12v36h-12v12h-24v12h-12v12h-12v36h-12v12h-12v12h-12v12h-36v12h-12v12h-24v12h-60v12h-12v12h-24v12h-24v12h-36v12h-24v12h-12v-12h-12v24h12v12h24v-12h12v12h12v-12h12v-24h12v12h24v-12h12v-12h24v-12h36v12h24v-24h24v-12h12v12h48v-12h12v24h-36v12h-24v12h-12v12h12v12h12v-12h24v-24h36v-12h12v12h12v-24h24v-12h12v-12h36v-12h12v-12h24v-12h12v-12h12v12h24v-12h12v-12h12v-12h24v-12h12v-12h24v-24h12v60h12v-48h12v-12h12v48h12v12h12v-1056h-12v-120h-12v-84h-12v96h12v876h-108v-12zM19529 3512h-12v12h-24v36h24v24h36v12h12v24h24v12h12v-12h12v12h72v-24h12v-240h12v-12h12v-24h12v-36h-12v24h-12v24h-12v12h-12v24h-12v108h-24v24h-12v24h-12v12h-12v12h-84z"/></g><g fill="#B9B9B9"><path d="M16709 1964v84h12v108h12v840h12v108h12v24h36v-12h12v-12h-12v-36h24v-36h12v-132h12v-24h-12v-12h12v-168h12v-108h12v-36h12v-12h-12v-96h-12v-12h12v-36h12v-36h-12v-168h12v-84h12v-36h-12v-36h12v-36h12v-24h12v-48h12v-48h12v-60h24v-36h12v-72h12v-36h12v-24h12v-12h12v-60h-12v24h-12v24h-12v12h-12v12h-12v12h-12v24h-12v60h-24v36h-12v36h-12v36h-12v48h-12v24h-12v48h-12v48h-12v48h-12v24h-12v60h-12v24h-12v12h-12v-24h-12v-48h-12v-60h-12v-48h-12v-48zM18581 1100h36v12h12v12h60v12h12v12h12v12h36v12h36v12h24v12h36v12h24v24h24v12h36v12h12v12h36v12h12v12h12v12h24v24h24v12h12v12h12v12h12v12h12v12h12v12h12v12h12v24h24v12h12v12h12v12h12v24h24v48h12v24h12v24h12v36h24v36h12v36h12v72h12v36h12v72h12v24h-12v12h24v48h12v12h12v48h12v24h12v36h12v132h12v84h12v12h-12v36h12v408h12v252h-12v12h12v36h12v24h-12v12h12v48h12v36h12v12h36v-156h12v-852h-12v552h-12v12h-24v12h-12v-252h-12v-276h-12v-108h-12v-48h-24v-36h-12v-48h-12v-60h-12v-12h-12v-12h-12v-48h-12v-72h-12v-60h-12v-108h-12v-12h-12v-24h-12v-24h-12v-24h-12v-12h-24v-36h-12v-24h-24v-12h-12v-12h-12v-12h-12v-12h-12v-12h-12v-12h-12v-12h-12v-48h-12v-12h-12v-12h-48v-12h-12v-12h-12v-12h-24v-12h-12v-12h-24v-12h-12v-12h-12v-24h-24v-12h-12v-12h-24v-12h-12v-12h-72v-12h-36v-12h-36v-12h-12v-12h-36v-24h-36v-12h-60v-24h-60v-12h-72v12h24v12h36v12h24v12h36v12h24zM17069 2972v-744h-12v-72h-12v-48h-24v24h-12v12h-12v12h-12v24h-12v72h-12v108h-12v132h-12v24h12v60h12v240h12v156h12v60h24v24h12v-12h36v-72zM17021 1580h24v-24h12v-36h12v-24h36v-12h12v-12h24v-12h12v-12h12v-12h12v-24h12v-12h12v-12h12v-12h12v-12h12v-12h12v-12h12v-12h12v-12h12v-24h36v-12h24v-36h24v-12h36v-12h12v-12h12v-12h24v-12h36v-12h24v-12h24v-12h12v-12h12v-12h12v-12h72v-12h24v-12h24v-12h48v-12h48v-12h48v-12h144v-12h456v-12h-96v-12h-672v12h-48v12h-24v12h-48v12h-48v12h-12v12h-12v12h-24v12h-12v24h-36v12h-12v12h-24v12h-12v12h-12v24h-36v12h-12v12h-12v12h-24v12h-12v12h-24v12h-24v12h-12v36h-12v12h-12v12h-24v24h-12v12h-12v12h-12v12h-12v24h-12v12h-12v48h-12v12h-12v12h-12v12h-12zM19205 3032h12v36h12v12h12v12h12v-24h12v-24h12v-120h12v-732h-12v-12h-12v-36h-12v-12h-24v36h-12v48h-12zM17393 944h72v-12h24v-12h24v-12h24v-12h36v-12h12v-12h36v-12h36v-12h24v-12h48v-12h36v-12h60v-12h48v-12h84v-12h360v12h48v12h84v12h48v12h36v12h48v12h24v12h36v12h36v12h24v12h24v12h36v12h72v-12h-24v-12h-24v-12h-24v-12h-12v-12h-36v-12h-24v-12h-24v-12h-36v-12h-36v-12h-36v-12h-36v-12h-48v-12h-36v-12h-60v-12h-36v-12h-60v-24h-300v12h-84v12h-72v36h-24v12h-48v12h-36v12h-36v12h-36v12h-36v12h-36v12h-24v12h-24v12h-24v12h-24v12h-24v12h-12v12h-24v12h-24zM17741 5228h24v12h24v-12h12v-12h12v-12h12v-12h24v-12h24v-12h36v-24h24v-12h12v-24h12v-12h48v-12h24v-12h12v-24h36v-12h36v-12h12v-24h-72v12h-48v12h-24v12h-24v-12h-12v12h-108v-12h-12v24h-36v-12h12v-12h-36v12h12v24h-24v-12h-24v12h-12v-12h-12v-24h-12v-12h48v-12h12v-24h36v-12h12v12h12v-12h60v-12h12v12h180v-12h-108v-12h-192v12h-72v12h-12v-24h-12v84h12v60h12v60h12v24h12v24h12v24h12zM18485 5372h12v-12h12v-12h12v-12h12v-12h-12v-12h12v-24h12v-12h-12v-12h-12v-12h-12v-12h-12v-36h-24v-12h-48v-12h12v-12h-24v-36h-36v-12h-12v-12h-36v-12h-12v-12h-12v-12h-12v-24h-24v-12h-12v-12h-24v24h24v24h24v36h24v24h24v12h12v12h12v12h12v24h24v24h12v24h12v36h24v24h12v12h24v24h12zM17285 956v12h-12v12h-12v12h-24v12h-12v12h-12v12h-24v12h-12v12h-12v12h-12v12h-12v12h-12v12h-24v12h-36v-24h12v-24h-12v12h-12v24h-12v12h-12v12h-12v12h-12v12h-12v12h-24v24h-24v24h-12v12h36v36h-12v24h12v36h12v-24h12v-12h12v-12h12v-84h12v-24h24v-12h12v-12h24v-12h36v-12h36v-12h12v-12h12v-12h12v-12h24v-12h12v-12h12v-12h24v-12h12v-12h12v-12h24v-12h-12v-12h12v-12h12v-12h-24v12zM18113 5480v-12h-24v-12h-12v-24h-12v-48h24v-60h12v-36h12v-12h24v-24h-12v-108h-12v12h-12v24h-24v60h-12v12h-12v24h-12v48h-12v36h-12v24h-12v24h-12v12h12v36h24v12h48v12zM18149 4736h72v12h24v12h24v-12h12v-12h12v-36h12v-36h12v-36h24v-36h12v-24h12v-36h24v-24h-12v12h-36v-12h-60v84h-12v24h-12v48h-12v60h-96zM17909 4580h12v36h12v12h24v24h12v12h12v12h12v12h12v36h24v12h12v36h48v-12h12v-24h-24v-24h-12v-48h-12v-36h-12v-12h-24v-24h-12v-24h-12v-36h-24v12h-24v12h-24v12h-12zM18365 4916h24v-12h24v-12h48v-12h48v-12h48v-12h12v-12h36v-12h12v-12h48v-12h-12v-24h-12v-24h-24v-12h-24v24h-12v12h12v12h-60v12h-24v12h-24v24h-60v36h-12v-12h-12v12h-12v12h-12v12h-12zM17117 980h36v12h24v-12h24v-12h12v-24h24v-12h12v-12h24v-12h24v-24h12v-12h12v-12h-24v12h-24v12h-12v12h-24v-12h-24v12h-12v12h-24v12h-12v12h-12v12h-12v12h-12v12h-12zM16901 1280v-24h12v-12h12v-12h12v-12h-24v-12h-12v24h-12v12h-12v24h-12v24h12v-12zM19349 1244v12h12v12h12v12h24v-24h-12v-24h-12v12z"/></g><g fill="#5B5B5B"><path d="M17081 968v12h36v-12h12v-12h12v-12h12v-12h12v-12h12v-12h24v-12h12v-12h24v12h24v-12h12v-12h24v-12h24v12h-12v12h-12v12h24v-12h12v-12h24v-12h24v-12h12v-12h24v-24h36v-12h24v-12h24v-12h120v12h24v-12h36v-12h36v-12h48v-12h12v-12h-156v12h-36v12h-48v12h-36v-24h36v-12h12v-12h36v-12h24v-12h36v-12h48v-12h24v-12h36v-12h48v-12h60v-12h96v-12h384v12h36v12h60v12h72v12h48v12h36v12h36v12h24v12h36v12h24v12h24v12h24v12h24v12h36v12h24v12h12v12h24v12h12v12h36v12h12v12h12v12h24v12h24v12h12v-12h24v12h24v12h12v12h12v12h12v12h12v12h12v12h12v12h12v12h24v24h24v12h12v12h12v12h12v12h12v24h12v12h12v12h12v12h12v12h12v12h12v24h12v12h12v12h12v24h12v12h12v12h12v24h12v24h-24v12h12v12h12v24h24v36h12v12h12v12h12v36h12v36h12v36h-72v12h12v24h12v24h12v12h48v12h24v-84h12v-24h-12v-24h-12v-24h-12v-24h12v12h12v24h24v-12h-12v-24h-12v-12h-12v-24h-12v-24h-12v-24h-12v-12h-12v-24h-12v-12h-12v-24h-12v-12h-12v-24h-12v-12h-12v-12h-12v-24h-12v-12h-12v-12h-12v-12h-12v-24h-12v-12h-12v-12h-12v-12h-12v-12h-12v-12h-12v-12h-12v-12h-12v-12h-12v-12h-12v-12h-12v-12h-12v-12h-12v-12h-12v-12h-24v-12h-12v-12h-12v-12h-12v-12h-24v-12h-12v-12h-12v-12h-24v-12h-12v-12h-24v-12h-12v-12h-24v-12h-12v-12h-24v-12h-24v-12h-24v-12h-24v-12h-24v-12h-24v-12h-24v-12h-24v-12h-36v-12h-24v-12h-36v-12h-36v-12h-36v-12h-48v-12h-48v-12h-48v-12h-72v-12h-108v-12h-240v12h-120v12h-60v12h-60v12h-48v12h-36v12h-48v12h-36v12h-24v12h-36v12h-24v12h-24v12h-36v12h-24v12h-24v12h-24v12h-12v12h-24v12h-24v12h-24v12h-12v12h-24v12h-12v12h-24v12h-12v12h-24v12h-12v12h-12v12h-12v12h-24v12h-12v12h-12v12h-12v12h-12v12zM18605 1412v12h12v12h24v12h24v12h12v12h12v12h24v12h12v12h12v12h12v12h12v12h12v12h12v12h24v12h12v12h12v12h12v24h12v12h24v12h24v12h12v-72h24v24h24v24h12v24h24v36h12v24h12v24h12v12h12v48h12v12h12v12h12v36h12v60h12v12h12v84h12v24h12v36h12v72h12v-84h-12v-96h-12v-36h-12v-36h-12v-12h-12v-36h-12v-60h-12v-24h-12v-24h-24v-48h-12v-12h-12v-12h-12v-24h-12v-24h-12v-12h-12v-12h-24v-24h-12v-12h-12v-12h-12v-24h-12v-24h-24v-12h-12v-12h-12v-12h-24v-12h-12v-24h-24v-36h-24v-12h-48v-12h-24v-12h-24v-36h-24v-12h-24v-12h-24v-12h-12v-12h-36v-24h-24v-24h48v12h24v12h48v24h48v12h24v-12h-12v-12h-24v-12h-24v-12h-48v-12h-24v-12h-24v-12h-48v-12h-48v-12h-36v-12h-96v-12h-96v-12h-264v12h72v12h12v-12h108v12h12v12h12v12h24v12h-12v24h36v-12h12v12h12v12h72v12h12v12h48v12h60v12h24v12h24v12h24v12h24v12h36v12h12v12h36v24h12v24h24v12h12v12h12v12h-24v-12h-12v-12h-36v-12zM18257 4760v12h12v12h12v24h12v72h12v-36h36v-12h12v-36h12v-12h24v-24h48v-24h12v-24h36v-24h12v-24h36v-24h24v-12h-12v-12h-12v-12h-12v-12h-12v-12h-24v-12h-12v-12h-24v-12h-12v-12h-24v-12h-24v12h-24v36h-12v24h-12v36h-24v36h-12v36h-12v36h-12v12h-12v12zM17525 1292v12h-24v12h-24v12h-12v12h-12v12h-24v24h-24v12h-12v12h-12v12h-12v12h-24v12h-12v24h-12v12h-12v12h-24v12h-12v24h-12v12h-12v12h-12v24h-12v12h24v-24h24v-12h24v-24h12v-12h12v-24h36v-24h12v-24h12v-12h36v-24h12v-12h24v-24h36v-12h12v-12h12v-12h24v12h12v12h24v-12h12v-12h24v-12h24v-12h12v-12h36v-12h36v-12h36v-12h36v-12h36v-12h12v12h12v12h-24v12h-12v24h-24v12h-24v12h-24v12h-24v12h-12v12h-48v12h-24v12h-12v12h-12v12h-12v24h60v-12h24v-12h24v-12h12v-12h36v-12h24v-12h36v-12h-48v-12h12v-12h24v-12h24v-24h36v-12h12v-12h24v-12h24v-72h-60v12h-60v12h-48v12h-36v12h-36v12h-12v12h-12v12h-24v12h-36v12h-48v12zM18089 5036v24h-12v12h-24v24h-12v24h-12v12h-12v12h-24v12h-24v24h12v12h-24v24h-24v12h-12v12h-12v12h-12v12h-12v12h-12v12h-12v12h-12v24h-12v-12h-36v12h12v12h24v24h24v12h12v12h12v12h24v12h24v12h12v12h24v12h12v-24h-12v-36h12v-12h-12v-12h12v-12h12v-24h12v-12h-12v-12h12v-12h12v-24h24v-24h12v-36h24v-24h24v-24h12v-12h12v108h12v-240h-12v12h-12v12zM17225 1580h-24v24h-12v12h-12v24h-24v24h-24v24h-12v12h-12v12h-12v24h-24v-36h12v-24h12v-36h12v-24h12v-36h12v-24h24v-12h12v-24h12v-24h12v-12h12v-12h12v-24h12v-12h12v-12h12v-12h12v-36h24v-12h12v-12h12v-12h24v-12h12v-24h24v-12h12v-12h12v-12h24v-12h12v-12h24v-12h12v-12h-36v12h-12v12h-36v24h-24v24h-24v24h-24v12h-12v12h-24v12h-12v12h-12v12h-12v36h-12v12h-12v12h-12v12h-24v12h-12v24h-36v12h-12v12h-12v24h-12v12h-12v24h-12v12h-12v60h-12v48h-12v48h-12v36h-12v96h12v24h24v-24h12v-12h12v-24h12v-12h24v-24h12v-24h12v-36h12v-24h12v-12h12v-24h12v-24h12v-24h12v-12h12v-12h12zM19049 956h-12v-12h-12v-12h-12v-12h-24v-12h-24v-24h-24v-12h-12v-12h-36v-12h-12v-12h-12v-12h-24v-12h-12v-12h-48v-12h-24v-12h-12v-12h-60v-12h-12v-12h-36v-12h-36v-12h-156v-12h-96v12h36v12h48v12h60v12h36v12h48v12h36v12h36v12h36v12h24v12h36v12h24v12h24v12h24v12h24v12h24v12h12v12h24v12h24v12h12v12h24v12h12v12h24v12h12v12h36zM19049 1184h12v12h12v12h12v12h12v12h12v12h12v12h12v12h12v12h12v12h12v12h12v12h12v12h12v12h12v24h12v12h24v12h12v12h12v-24h-12v-24h-12v-12h-12v-12h-12v-12h-12v-12h-12v-12h-12v-24h-12v-12h-12v-12h-12v-12h-12v-12h-12v-12h-12v-12h-12v-12h-12v-12h-12v-12h-12v-12h-12v-12h-24v-12h-12v-12h-12v-12h-12v-12h-24v-12h-12v-12h-12v-12h-24v-12h-12v-12h-36v24h12v12h12v12h24v12h12v12h24v12h12v12h12v12h12v12h24v12h12v12h12zM18053 4904v-84h-24v12h-24v-12h-12v-12h-24v12h-12v-12h-12v36h24v24h24v12h36v24zM19325 1352v-24h12v-48h36v-12h-12v-12h-12v-12h-12v-12h-12v-12h-36v36h12v24h-12v36h12v24h12v12zM17705 4796v-24h12v-24h12v-24h12v-12h12v-24h-24v12h-12v-12h-12v24h-12v24h-12v24h-12v36zM17189 980v24h48v-12h24v-12h12v-12h12v-12h-24v-24h12v-12h-24v12h-12v12h-24v24h-12v12z"/></g><g fill="#2D2415"><path d="M18689 4940v108h-12v48h-12v36h-12v36h-12v24h-12v24h-12v24h-12v12h-12v24h-12v12h-12v12h-12v12h-12v24h-24v12h-12v12h-12v12h-12v12h-12v12h-24v12h-12v12h-24v12h-24v12h-36v12h-36v12h-60v12h-180v-12h-48v-12h-24v-12h-36v-12h-24v-12h-12v-12h-24v-12h-24v-12h-12v-12h-12v-12h-24v-24h-24v-12h-12v-24h-12v-12h-12v-12h-12v-24h-12v-12h-12v-24h-12v-24h-12v-24h-12v-24h-12v-60h-12v-12h-12v-36h-12v-24h-12v108h12v36h12v36h12v24h12v24h12v24h12v12h12v24h12v12h12v12h12v12h12v12h12v12h12v12h12v12h12v12h12v12h12v12h24v12h12v12h24v12h24v12h24v12h24v12h36v12h48v12h228v-12h48v-12h36v-12h24v-12h24v-12h24v-12h24v-12h12v-12h24v-12h12v-12h12v-12h12v-12h12v-12h12v-12h12v-12h12v-12h12v-12h12v-24h12v-12h12v-24h12v-12h12v-24h12v-24h12v-36h12v-48h12v-48h12v-132h-24v12zM19553 3308v12h-12v24h-24v12h-324v-12h-12v-24h-12v-12h-36v-12h-48v36h-12v12h12v12h24v12h24v12h36v12h48v12h288v-12h60v-12h36v-12h24v-12h12v-72h-12v-24h-24v24h-12v12h-24v12zM18221 4472h72v12h24v12h48v12h24v12h24v12h24v12h12v12h24v12h12v12h24v12h12v12h12v12h12v12h12v24h12v12h12v12h12v12h12v24h12v24h12v24h12v24h12v24h36v-48h-12v-24h-12v-24h-12v-24h-12v-24h-12v-12h-12v-12h-12v-24h-12v-12h-12v-12h-12v-12h-12v-12h-12v-12h-24v-12h-12v-12h-12v-12h-24v-12h-12v-12h-24v-12h-24v-12h-24v-12h-24v-12h-72v-12h-48v-12h-144v24h12v12h108z"/></g><g fill="#FCFAF5"><path d="M16181 3740h168v12h240v12h228v12h312v12h240v12h60v12h84v12h72v12h36v12h24v12h120v-12h36v-12h24v-12h96v-12h156v-12h516v-12h468v-12h156v12h12v12h12v12h36v-12h12v-12h12v-12h60v-12h276v-12h240v-12h204v-12h60v-12h24v-36h-12v12h-12v12h-24v12h-96v12h-216v12h-252v12h-216v-12h-12v-12h-12v-12h-108v12h-36v24h-420v12h-612v-12h-216v-12h-132v-12h-12v-12h-36v-12h-108v12h-36v24h-636v12h-312v-12h-216v-12h-204v-12h-72v-24h-36v-24h-12v48h12v12h60zM19013 1220h36v-48h-12v-12h-12v-12h-24v-12h-12v-12h-12v-12h-12v-12h-24v-12h-12v-12h-24v-12h-12v-12h-24v-12h-12v-12h-12v-24h36v12h12v12h24v12h12v12h24v12h12v12h12v12h24v12h12v12h12v12h12v12h24v12h12v12h12v12h12v12h36v-24h-12v-12h-12v-12h-12v-12h-24v-12h-24v-12h-12v-12h-12v-12h-12v-12h-24v-12h-12v-12h-12v-12h-24v-12h-12v-12h-24v-12h-24v-12h-12v-12h-24v-12h-12v-12h-12v-12h-36v-12h-24v-12h-36v-12h-24v-12h-24v-12h-36v-12h-36v-12h-24v-12h-48v-12h-36v-12h-48v-12h-108v12h60v12h60v12h48v12h36v12h36v12h36v12h36v12h24v12h24v12h36v12h12v12h-108v-12h-24v-12h-36v-24h-12v-24h-36v-12h-48v-12h-48v-12h-48v-12h-108v-12h-324v12h-60v12h-12v12h-12v12h-24v12h-60v12h-12v12h-12v12h60v-12h72v12h24v24h96v-36h24v-12h12v-12h240v24h96v12h72v12h36v12h48v12h36v12h36v12h36v12h12v12h12v36h12v12h12v24h36v12h12v12h96v12h36v12h24v12h12v12h12v12h24v12h24v12h12v12h12v12h12zM17753 4688v24h-12v12h-12v24h-12v24h-12v36h-12v12h-24v120h12v24h12v-12h72v-12h192v12h108v12h24v12h24v-24h-24v-12h-12v-12h-12v-12h-48v-12h-12v-12h-24v-12h-24v-12h-12v-12h-36v-12h-24v-12h-12v-12h-24v-24h-24v-12h-48v-12h-24v-48h12v-12h12v-12h12v-24h12v-12h12v-12h12v-12h12v-12h12v-12h12v-12h12v-12h12v-12h24v-12h12v-12h24v-12h24v-12h24v36h12v24h12v24h24v12h12v36h12v48h12v24h24v12h24v-12h24v-12h36v-12h24v-132h12v-84h72v12h48v12h36v-12h-12v-12h-48v-12h-24v-12h-204v-12h-60v12h-12v24h-24v12h-36v12h-24v12h-12v12h-24v12h-12v12h-24v12h-12v12h-12v12h-12v12h-12v12h-12v12h-12v24h-12v12h-12v12zM18293 4892v12h-12v24h-12v12h-12v12h-24v12h-12v24h84v12h108v12h84v12h12v12h156v12h24v-180h-12v-36h-12v-12h-48v12h-12v12h-36v12h-12v12h-48v12h-48v12h-48v12h-24v12h-48v12h-36v-36zM18209 5264v12h-12v12h-12v12h-24v12h24v144h-12v24h84v-12h60v-12h36v-12h36v-12h24v-24h-12v-24h-12v-24h-12v-36h-24v-12h-12v-60h-12v-12h-12v-12h-12v-24h-12v-24h-12v-24h-12v-24h-12v-24h-12v-24h-12v-72h-12v252zM19385 1736h12v132h12v12h12v12h24v12h48v-12h12v-24h12v-60h-12v-48h-24v-12h-12v-12h-24v-12h-24v-24h-12v-12h-12v-12h-12zM18233 5516v12h-108v12h156v-12h48v-12h36v-12h36v-12h24v-12h24v-12h24v-12h12v-12h24v-12h12v-12h24v-12h12v-12h12v-12h12v-12h12v-12h12v-12h12v-24h12v-12h12v-12h12v-24h12v-24h12v-12h12v-24h12v-24h12v-36h12v-48h12v-72h-12v24h-12v48h-12v48h-12v36h-12v24h-12v24h-12v12h-12v24h-12v12h-12v24h-12v12h-12v12h-12v12h-12v12h-12v12h-12v12h-12v12h-12v12h-12v12h-24v12h-12v12h-24v12h-24v12h-24v12h-24v12h-36v12h-48v12zM16829 1748h-48v12h-24v12h-12v72h36v12h60v-48h12v-60h-12v-12h-12z"/></g><g fill="#F8ECC7"><path d="M16229 3716v12h204v12h216v12h312v-12h636v-24h36v-12h108v12h36v12h12v12h132v12h216v12h612v-12h420v-24h36v-12h108v12h12v12h12v12h216v-12h252v-12h-336v-12h-60v12h-12v-12h-48v-24h-12v-12h-12v-12h-24v-12h-48v-12h-12v-12h-12v24h-36v12h-12v-12h-36v12h-24v-12h-72v-12h-12v-12h-48v-12h-24v12h-96v12h-12v12h-12v-12h-24v12h-12v-12h-12v24h-48v12h-132v12h-12v12h-36v12h-24v-12h-36v12h-84v12h-156v-12h-24v-12h-12v12h-288v-12h-72v-12h-120v-24h-12v-12h-36v12h-60v-12h-60v12h-108v12h-12v-12h-12v12h-84v-12h-24v12h-12v-12h-60v-12h-180v-12h-12v12h-24v-12h-12v12h-48v12h-84v12h-96v12h-48v12h-24v12h-84v-12h-72v12h-120v12h-12v-12zM18461 3800h-384v12h-156v12h-96v12h-24v12h-36v12h-120v-12h-24v-12h-36v-12h-72v-12h-84v-12h-60v-12h-240v-12h-132v12h72v12h-12v24h132v12h132v12h72v12h36v12h48v12h48v24h12v-12h12v12h24v12h12v12h36v12h36v12h36v12h24v-48h12v24h72v-12h24v12h12v-12h24v-24h24v12h24v-12h-12v-12h24v-24h12v12h12v24h12v-12h24v-12h24v12h12v-24h60v12h12v-12h36v-12h60v12h24v-12h24v12h12v-24h12v12h12v-12h60v-12h48v12h12v-12h12v12h12v-24h12v24h24v-12h12z"/></g><g fill="#F5E5B3"><path d="M18881 3788h-288v12h-132v36h-12v12h-24v-24h-12v24h-12v-12h-12v12h-12v-12h-48v12h-60v12h-12v-12h-12v24h-12v-12h-24v12h-24v-12h-60v12h-36v12h-12v-12h-60v24h-12v-12h-24v12h-24v12h-12v-24h-12v-12h-12v24h-24v12h12v12h-24v-12h-24v24h-24v12h-12v-12h-24v12h-72v-24h-12v48h-24v-12h-36v-12h-36v-12h-36v-12h-12v-12h-24v-12h-12v12h-12v-24h-48v-12h-48v-12h-36v-12h-72v-12h-132v-12h-132v-24h12v-12h-72v-12h-48v36h72v24h108v12h48v12h24v12h48v12h36v12h24v12h48v12h12v-12h24v12h12v12h48v12h24v12h12v24h12v-24h12v12h12v12h12v12h-12v12h36v12h24v12h12v48h12v-24h24v12h-12v12h12v24h24v-12h36v-12h-12v-24h12v-12h12v12h48v-24h36v12h36v12h-24v24h12v12h12v12h-12v12h24v-60h12v12h12v12h-12v12h12v12h12v-24h12v-12h12v-12h-12v-12h-12v12h-12v-24h12v-24h36v-12h12v12h12v12h12v12h-12v12h12v24h24v-12h-12v-12h12v-12h24v12h-12v12h24v-12h24v-24h12v12h12v12h-12v12h12v12h12v12h24v-12h36v-12h12v-12h36v12h60v-12h-12v-12h24v12h12v12h12v-24h12v-12h12v12h24v12h12v-24h12v-12h12v-12h12v24h12v-12h12v-24h36v-12h12v-24h36v-24h12v24h12v12h12v-12h12v24h12v-36h12v-12h-12v-12h12v-12h24v12h24v-12h24v12h12v12h12v-24h24v12h12v-24h60v-24h12v12h24v12h24v-24h36v-12h24v-24h12v-12h12zM18005 4316h-36v12h12v12h12v24h-12v-12h-12v24h12v24h-24v12h12v24h-48v24h24v-12h36v-12h24v-12h48v-12h72v-12h48v-12h12v-12h-12v-12h-12v-12h-24v12h12v12h-24v-24h-12v12h-12v-12h-24v-12h12v-12h-48v-12h-24v-12h-12z"/></g><g fill="#454545"><path d="M17549 1352v12h-24v12h-12v12h-12v12h-12v12h-24v12h-12v12h-24v24h-12v12h-12v12h-12v24h-12v12h-12v12h-36v12h-12v12h-12v36h-12v12h-12v12h-12v12h-12v24h-12v12h-12v24h-12v24h-12v24h-12v12h-12v48h-24v36h-12v48h-12v12h-12v108h-12v36h-12v36h-12v984h24v36h12v24h-12v12h24v48h12v24h12v-24h12v-24h12v-24h12v-876h12v-72h12v-12h12v-72h12v-72h12v-48h12v-48h12v-36h12v-24h12v-24h12v-36h12v-24h12v-12h12v-24h12v-24h12v-12h12v-24h12v-12h12v-12h12v-24h12v-12h12v-12h12v-12h12v-12h12v-12h12v-12h12v-12h12v-12h12v-12h12v-12h12v-12h24v-12h12v-12h12v-12h24v-12h12v-12h24v-12h24v-12h12v-12h24v-12h24v-12h36v-12h24v-12h36v-12h36v-12h48v-12h60v-12h276v12h96v-12h-36v-12h-36v-12h-312v12h-48v12h-72v12h-24v12h-24v12h-36v12h-24v12h-36v12h-12v12h-24v12h-24v12h-60v-24h12v-12h12v-12h12v-12h24v-12h48v-12h12v-12h24v-12h24v-12h24v-12h24v-24h12v-12h24v-12h-12v-12h-12v12h-36v12h-36v12h-36v12h-36v12h-36v12h-12v12h-24v12h-24v12h-12v12zM19061 3116h12v12h12v12h-12v12h24v-24h24v-12h12v-24h24v-72h12v-864h-12v-72h-12v-36h-12v-24h-12v-84h-12v-12h-12v-60h-12v-36h-12v-12h-12v-12h-12v-48h-12v-12h-12v-24h-12v-24h-12v-36h-24v-24h-12v-24h-24v-24h-24v72h-12v-12h-24v-12h-24v-12h-12v-24h-12v-12h-12v-12h-12v-12h-24v-12h-12v-12h-12v-12h-12v-12h-12v-12h-12v-12h-12v-12h-24v-12h-12v-12h-12v-12h-24v-12h-24v-12h-12v-12h-24v-12h-24v-12h-12v-12h-36v-12h-24v-12h-36v-24h-72v24h48v12h24v12h36v12h24v12h24v12h24v12h24v12h24v12h12v12h24v12h12v12h24v12h12v12h12v12h12v12h24v12h12v12h12v12h12v12h12v12h12v12h12v24h12v12h12v12h12v12h12v24h12v12h12v24h12v12h12v24h12v12h12v24h12v24h12v36h12v24h12v36h12v36h12v48h12v48h24v84h12v120h12zM19553 2060v1224h12v-180h12v12h72v-12h12v132h12v-1164h-12v-96h-12v-36h-12v-72h-12v-48h-36v108h-12v48h-12v84zM16601 3236v-96h24v-12h12v12h12v-12h12v12h12v-48h12v-12h12v84h12v-1092h-12v-84h-24v-24h-12v-36h-12v-12h-24v24h-12v72h-12v96h-12v1128zM19109 1508v12h12v36h12v12h12v24h12v24h12v60h-12v-12h-12v-12h-12v-12h-24v-24h-12v-12h-12v-24h-12v-12h-12v-24h-12v-12h-24v-24h-12v-12h-12v-12h-12v-12h-12v-12h-12v-12h-12v-12h-12v-12h-12v-12h-12v-12h-24v-12h-12v-12h-24v-12h-12v-12h-24v-24h-12v-12h-24v-12h-24v-24h-24v-12h-12v-12h-24v-24h84v12h12v12h24v12h24v12h24v12h36v12h12v12h24v24h12v12h12v12h12v12h12v12h12v12h12v12h12v12h24v24h12v24h24v12h12v24h12zm-1632-324v12h-12v12h24v-12h24v-12h12v-12h24v-12h12v-12h24v-12h72v-12h48v-12h36v-12h60v-12h156v-12h72v-12h372v12h48v12h36v12h36v12h36v36h24v36h-72v-12h-24v-12h-36v-12h-120v-12h-84v-12h-312v12h-72v12h-12v12h-60v12h-36v12h-60v12h-24v12h-24v12h-36v24h-12v12h-36v12h-36v24h24v-12h48v-12h36v-12h24v-12h12v-12h12v-12h36v-12h36v-12h48v-12h60v-12h60v-12h60v-12h264v12h96v12h96v12h36v12h48v12h48v12h24v12h24v12h48v12h24v12h24v12h12v36h24v12h24v24h24v12h24v12h12v24h24v12h12v24h12v12h24v12h24v24h12v12h24v24h12v12h12v12h12v12h12v12h12v12h12v12h12v12h24v36h12v24h12v12h12v12h12v12h12v24h12v12h24v36h12v12h12v24h12v24h24v-144h-12v-24h-12v-48h-24v-36h-12v-24h-12v-12h-12v-12h-12v-24h-24v-36h-12v-24h-24v-12h-12v-36h-12v-12h-12v-12h-12v-12h-36v-12h-12v-12h-12v-12h-12v-24h-24v-12h-12v-12h-24v-12h-12v-12h-12v-12h-24v-12h-24v-12h-24v-12h-24v-12h-24v-12h-12v-12h-36v-12h-24v-12h-24v-12h-36v-12h-12v-12h-24v-24h-24v-12h-36v-12h-24v-12h-36v-12h-24v-12h-456v12h-144v12h-48v12h-48v12h-48v12h-24v12h-24v12h-72v12h-12v12h-12v12h-12v12h-24v12h-24v12h-12zM16937 1376v-48h-12v-48h-36v24h-12v12h-24v60h-36v24h-12v24h-12v24h-12v60h72v-12h12v-24h12v-12h12v-24h12v-12h12v-24h12v-24z"/></g><g fill="#E7C976"><path d="M18293 4436v12h72v12h24v12h24v12h24v12h24v12h12v12h24v12h12v12h12v12h24v12h12v12h12v12h12v12h12v12h12v24h12v12h12v12h12v24h12v24h12v24h12v24h12v36h12v24h12v72h12v144h24v-36h12v48h48v-72h12v-12h-12v-12h12v-24h12v-12h12v-12h12v-12h12v-24h24v-24h12v-24h12v-24h-12v-12h24v-36h-12v-12h12v-12h-12v-12h-12v-12h-12v-24h12v-12h24v-12h-12v-12h24v-24h12v-12h-12v-24h24v-24h24v-12h-12v-36h24v-12h12v-24h-12v-12h12v-12h36v-24h12v-12h-12v-12h12v-12h-12v-12h48v-12h-36v-24h12v-12h12v-24h12v-24h12v-12h-12v-24h12v-24h12v-12h12v-12h-12v-36h24v-12h24v-12h24v-12h12v-24h12v-12h-12v-36h-12v-12h12v-12h12v24h12v-12h12v-24h24v-12h48v-12h12v-12h-12v-12h-12v-12h-12v-24h-48v-12h-12v12h-36v12h-12v-24h-12v24h-24v-12h-12v12h-24v48h-12v12h-12v-12h-12v48h-24v24h-24v12h-12v12h-36v-12h-12v24h12v12h-12v36h-12v-12h-12v24h-12v12h12v48h-12v12h12v12h-36v-12h-12v36h24v12h-36v-12h-24v-12h-12v48h-12v12h-12v12h12v12h12v24h-12v36h-12v12h-12v-48h-24v60h-12v-24h-12v36h-36v12h-12v24h-12v24h-12v-24h-12v12h-24v-12h-12v-12h12v-24h24v-24h24v-24h12v12h12v12h-12v12h24v-36h-12v-12h-12v-12h-12v12h-12v-24h-12v-12h-12v12h-12v24h12v12h-12v12h12v12h-36v12h12v12h-24v-12h-12v12h-12v24h12v12h12v-24h12v36h-24v12h-12v24h-12v-12h-24v-12h-12v12h-48v-12h-24v-12h-24v-12h-12v-12h-36v-12h-24v-12zM17621 4964h-12v96h-12v-12h-48v-24h-24v-12h-48v-48h-12v-12h12v-12h-12v-36h-24v24h-12v12h-12v-36h-12v-36h-24v-24h-12v-12h12v-12h12v-12h-12v-36h-12v-12h12v-12h12v36h12v-60h-12v-24h-12v12h-36v-12h-12v-12h12v-12h-24v-12h-48v-24h12v12h12v-24h48v-12h-36v-12h-12v-24h-12v24h-12v12h-12v-48h-24v-24h-12v-12h-24v-12h-24v-24h24v-12h-12v-24h12v12h12v-24h-36v24h-12v-12h-12v-12h12v-12h-12v-12h12v-12h12v-12h24v-24h-12v12h-36v-12h12v-12h12v-12h12v-24h-12v12h-12v-36h12v12h12v-24h-12v-12h12v-12h-24v12h-12v-24h-12v12h-12v-24h36v-12h-12v-12h-12v-24h-12v-12h-12v-12h-12v-12h-12v-12h12v-24h-12v-24h-36v-12h48v-12h-36v-24h-12v-12h12v-84h-12v12h-36v-24h12v-12h12v12h12v-12h12v-24h-60v-12h-36v-12h-12v-12h-48v-12h-12v-12h-48v-12h-24v-12h-12v-60h-132v12h12v12h-12v24h12v24h36v12h24v36h36v12h24v24h12v-24h36v24h36v12h-24v24h12v12h-12v12h36v12h-12v12h-12v12h-12v12h12v12h12v24h24v-12h12v48h-24v60h12v36h12v48h12v-24h36v12h12v24h-12v24h12v36h-24v12h12v36h12v12h-12v12h12v12h12v24h12v24h-12v12h12v12h12v12h-24v-12h-12v36h12v12h-24v12h36v12h12v12h12v-24h24v24h-12v12h-12v24h-12v12h36v24h-12v12h24v24h24v12h12v12h-12v36h36v12h-12v12h12v12h12v-12h24v12h24v12h-12v24h12v24h-12v-12h-24v24h12v12h-36v12h48v12h-12v24h-12v24h12v-12h12v-12h24v-12h12v24h-12v24h36v12h-12v24h48v12h-24v12h-12v-12h-12v12h-12v24h12v12h48v12h12v24h12v-24h24v-12h12v24h12v12h12v-12h24v36h-12v12h36v12h12v36h24v-12h24v-12h-12v-12h24v48h12v-12h12v-12h-12v-24h12v-12h12v12h12v12h24v-12h12v-24h12v36h24v-12h12zM17261 3296h12v36h-12v12h-12v12h-12v120h24v-12h12v12h12v-12h48v-12h24v24h12v-12h12v36h72v12h12v36h36v12h12v-12h12v24h24v12h12v-24h24v12h84v12h12v-12h24v24h12v-12h96v12h24v-12h12v12h72v36h24v-12h-12v-12h60v12h24v-12h24v12h48v24h48v-24h24v-12h12v24h12v-24h12v12h24v12h12v-24h12v12h48v-24h48v-24h12v24h12v-12h24v-12h48v12h12v-12h24v-12h12v12h12v-24h12v-12h48v-12h36v-12h36v-12h60v-12h24v-12h12v-24h24v-36h-12v-12h-12v12h-36v24h-24v12h-12v-12h-12v12h-24v12h-24v12h-24v12h-12v12h-48v-12h-12v12h-12v36h-36v12h-12v-12h-48v12h12v12h-24v-12h-36v-12h-72v-12h-12v12h-24v12h-24v12h-12v-12h-24v12h-24v12h-12v-24h-12v12h-12v12h-12v-12h-24v12h-24v-12h-24v-24h-24v-12h-24v12h-12v-12h-24v12h-12v-24h-108v-12h-36v-12h-24v12h-24v-12h-12v-12h-24v12h-12v-12h-12v-12h-12v12h-12v-12h-36v24h-12v-36h-12v12h-24v-24h-12v-12h-48v-12h-12v-24h12v-24h12v-12h-12v-12h-24v-12h12v-12h12v-36h-12v12h-12v-36h12v-36h-24v-48h-60v-12h-12v12h-12v-12h-12v12h-36v12h24v12h-36v12h-48v-12h-12v36h-12zM16181 3500v12h-12v12h-12v24h-12v24h-12v24h-12v24h-12v12h36v48h72v-12h24v12h12v-12h24v12h12v-24h12v24h72v12h24v-12h36v12h12v-12h24v-24h24v24h48v-24h24v12h96v-12h12v-12h12v12h12v-24h36v-12h72v-12h60v-12h72v-12h12v-12h-24v12h-192v12h-84v-12h-36v12h-12v-12h-12v-12h-36v-12h-24v-12h-24v-12h-12v12h-12v24h-36v-24h-12v-12h-12v12h-24v-12h-24v12h-60v12h-48v-12h-36v-72h-12v12h-12v12zM19289 3584v12h48v12h180v12h12v24h-12v24h12v12h12v12h48v-12h12v12h24v12h24v-12h72v12h12v-12h48v12h192v-12h12v-12h12v12h96v-12h36v-48h24v-24h-12v-24h-12v-24h-12v-24h-12v-24h-36v60h12v24h-12v12h-12v12h-48v-12h-12v-12h-12v-12h-12v12h-12v12h-12v-12h-84v12h-24v-24h-24v12h-12v-12h-12v-12h-12v12h-36v-24h-12v12h-24v36h-24v24h-72v-12h-12v12h-12v-12h-36v-12h-12v-12h-48v-12z"/></g><g fill="#CC822E"><path d="M19277 5696v-12h24v-36h12v12h24v-24h-24v-12h24v-24h24v-12h-12v-12h12v-24h-12v-12h36v-12h-12v-12h-24v-12h12v-12h24v12h12v-60h12v12h12v-12h24v-12h-36v-12h12v-36h48v-12h-12v-12h36v-24h12v-24h12v-24h-24v-24h-12v-12h24v-24h12v12h60v-12h12v-12h-36v-12h-12v-36h24v-24h-12v-12h12v-12h-12v-12h24v48h12v-12h24v-12h-24v-24h12v-12h-36v-36h12v12h12v12h12v-12h12v-24h-12v-24h-12v-36h12v12h12v-36h12v-12h-12v-12h24v-24h-24v-12h12v-24h12v-12h12v-12h36v-24h-24v-24h-12v-12h12v-12h12v-24h12v-12h12v-24h-24v-12h12v-12h12v12h24v-12h-12v-12h-12v-12h12v-36h12v12h24v-24h-36v-24h12v-12h-12v-24h-12v-24h12v-12h12v-12h12v-24h12v-12h12v-12h12v-12h12v-12h-12v-12h24v12h12v-24h12v-12h-36v-24h12v-24h-12v-12h12v-12h-24v-12h36v36h12v-12h12v-12h-12v-12h12v-12h12v-36h-12v-24h12v-24h-24v-24h12v-12h24v-24h-12v-24h24v-12h-24v-12h-12v-12h12v-24h24v-48h12v-12h12v-12h-36v-48h24v-12h-12v-24h-12v-12h12v-108h12v-12h24v-12h-12v-24h-24v-12h-228v24h96v36h12v24h-24v12h12v12h12v48h-24v12h-12v36h12v24h-24v36h12v12h-24v-12h-24v12h12v12h12v24h24v24h24v12h-36v-12h-12v24h12v12h-24v-24h-12v36h12v24h12v12h-12v24h12v12h-24v12h-12v12h36v24h-12v24h-24v-12h12v-24h-12v12h-24v24h-12v12h-24v24h12v12h12v12h-12v12h-24v-12h-24v12h12v12h-12v12h12v36h-12v12h-12v12h12v12h12v12h-36v36h12v24h12v12h-24v12h-24v-12h-24v12h12v12h24v24h36v24h12v12h-36v24h12v24h24v12h-36v-24h-24v12h12v72h24v24h24v12h-24v12h12v24h-12v-12h-36v12h-12v-24h-12v60h-12v12h12v60h-12v24h-24v12h12v12h-12v24h12v24h24v24h-24v12h-12v-24h-12v48h-12v36h-12v12h12v12h12v12h-12v12h24v12h-36v84h-24v-12h-12v12h-12v12h24v36h-12v24h24v12h-24v12h12v48h-12v-24h-12v24h-12v-48h-12v36h-12v12h-12v24h12v-12h24v24h-36v12h12v12h-24v12h12v12h12v12h-24v12h12v24h12v12h-12v24h-12v-12h-12v12h-12v12h12v12h-24v12h-12v36h12v24h12v12h-24v24zM16745 5120v-12h-24v-36h-12v-12h12v-12h12v-12h-12v-36h-12v-12h-24v-12h12v-24h12v-36h-12v-24h12v-12h-24v-12h-12v-24h-12v12h-12v-24h24v-12h-12v-12h-12v-12h-24v-12h12v-24h24v-24h-12v12h-12v-24h-36v-12h12v-12h12v-12h-12v-48h12v12h12v-24h-12v-12h-12v-12h-24v-36h36v-24h-12v-12h-12v-12h12v-24h-12v-12h-12v12h-12v-24h12v-24h12v-12h-24v-24h-24v-24h-12v-24h12v-12h12v-12h-12v-48h12v-24h-12v-12h12v-12h12v-12h-12v-36h-12v-12h12v-12h-12v-24h-24v-12h12v-12h-12v-24h24v-12h-48v-12h-12v12h-12v-36h12v-12h12v-12h12v-36h12v-24h-12v12h-12v-24h12v-12h-24v-24h12v-24h12v-12h-12v-12h-36v-12h-12v-12h-36v-12h-12v-12h-12v-36h12v-24h-12v-12h-48v12h-24v24h-12v36h12v12h24v12h12v12h12v24h12v-12h24v12h12v12h-12v24h12v12h-12v36h12v-12h12v60h-12v36h-12v12h12v12h-12v12h12v12h12v24h12v24h12v12h-24v12h24v12h12v36h-12v48h12v12h-12v12h12v12h12v12h-24v60h-12v36h12v12h12v-12h24v12h-12v12h-12v24h-12v12h12v60h48v12h-12v48h-12v24h12v12h12v-12h12v-12h-12v-12h24v12h12v24h-24v24h-12v24h12v24h-12v12h12v12h24v36h12v48h-24v36h-12v96h24v12h-12v12h-24v24h12v12h12v60h12v-36h24v24h-12v24h-12v12h12v24h24v24h12v24h-24v24h-24v12h24v12h-12v12h-12v24h12v-12h12v12h12v-12h12v24h-12v48h-12v24h36v24h-12v12h12v12h12v12h-12v24h12v12h-12v12h36v12h12v12h12v-12h12v60h12v12h-12v24h-12v12h36v36h-12v12h24v12h-12v12h-24v12h12v12h24v12h12v12h-12v36h12v-12h24v12h-12v24h12v12h24v12h-24v12h-12v12h24v24h-12v36h12v12h12v-24h12v24h12v12h-12v24h12v12h24v36h24v-12h12v-24h-24v-72h12v-36h12v-12h-24v-12h24v-24h-12v-36h-24v-12h12v-24h-12v-60h-24v-48h12v-24h12v-12h12v-48h-24v-24h-12v36h-12v-48h24v-24h-12v12h-24v-12h-12v-24h-12v-48h-24v-24h12v-12h24v-12h-12v-12h-12v-12h12v-12h-24v-24h-24v-12h12v-12h12v-60h-12v-12h12v-24zM17873 3020v12h12v12h-12v12h-24v36h-12v84h-12v12h12v12h-12v24h-12v24h12v24h12v-24h24v12h-12v12h24v36h12v12h48v12h24v12h12v-12h24v24h12v-12h24v-12h24v24h12v-24h12v12h24v-12h72v-12h12v12h24v-12h12v12h12v-12h12v24h12v-12h36v-36h36v-12h24v24h24v-24h12v-12h12v-24h12v12h12v-12h24v-12h-12v-12h12v-12h24v-12h12v-12h-24v-24h12v-12h12v-12h48v-24h24v-48h12v-12h-12v-12h-12v12h-12v-24h12v-12h24v-12h-492v12zM16565 3344v-12h-12v-84h12v-12h12v-204h-12v156h-12v-36h-24v24h-12v-24h-12v12h-60v-12h-12v-24h12v-24h12v-12h24v-12h12v-12h60v-36h-60v12h-48v12h-24v12h-12v12h-12v12h-12v24h-12v24h-12v24h-12v24h-12v24h-12v144h36v12h72v12h24v-12h12v12h12v12h36v-12h12v12h24v-48z"/></g><g fill="#9A9A9A"><path d="M19277 3140v60h-12v36h12v36h-60v-12h-12v-1044h12v-48h12v-36h24v12h12v36h12v12h12v732h-12v144h12v48h12v24h-24zm-168-1632h24v24h12v12h12v12h24v12h12v24h24v60h24v36h12v84h12v132h12v12h-12v48h-24v-12h-12v-36h-12v-24h-12v12h-12v-24h-12v-36h-12v-24h-24v-36h-24v12h12v36h12v60h12v24h12v84h12v1104h12v180h12v12h12v12h84v-12h12v-60h12v-36h-12v-60h12v-60h12v-24h36v12h12v12h12v12h12v24h12v60h-24v36h12v60h12v12h12v12h24v-12h-12v-24h12v-72h12v24h12v12h12v-12h12v24h12v36h24v-1116h12v-48h-12v24h-12v900h-12v156h-36v-12h-12v-36h-12v-48h-12v-12h12v-24h-12v-36h-12v-12h12v-252h-12v-408h-12v-36h12v-12h-12v-84h-12v-132h-12v-36h-12v-24h-12v-48h-12v-12h-12v-48h-24v-12h12v-24h-12v-72h-12v-36h-12v-72h-12v-36h-12v-36h-24v-36h-12v-24h-12v-24h-12v-48h-24v-24h-12v-12h-12v-12h-12v-12h-24v-24h-12v-12h-12v-12h-12v-12h-12v-12h-12v-12h-12v-12h-12v-12h-24v-24h-24v-12h-12v-12h-12v-12h-36v-12h-12v-12h-36v-12h-24v-24h-24v-12h-36v-12h-24v-12h-36v-12h-36v-12h-12v-12h-12v-12h-60v-12h-12v-12h-36v12h24v12h12v12h36v12h24v12h24v12h36v12h12v12h24v12h24v12h24v12h24v12h24v12h12v12h12v12h24v12h12v12h24v24h12v12h12v12h12v12h36v12h12v12h12v12h12v36h12v12h24v24h12v36zM16865 2840h12v-24h12v-12h12v-24h12v12h12v24h12v84h12v12h-24v24h12v24h-12v36h12v72h12v24h-12v12h-24v-12h-48v-24h-12v-12h12v-12h-12v-132h12v-36h12v-12h12v-12h-24v-12zm120 144v-12h-12v-156h-12v-240h-12v-60h-12v-24h12v-132h12v-108h12v-72h12v-24h12v-12h12v-12h12v-24h24v48h12v72h12v1044h-24v12h-12v12h-12v-12h-24v-12h-12v-12h-12v-108h12v-96h-12v-72h12zm-276-1344h-12v36h-12v24h-12v36h-12v48h-12v24h-12v36h-12v24h-12v-72h12v-36h12v-60h12v-36h12v-36h12v-36h12v-36h12v-24h12v-24h12v96h-12v36zm312-60v60h-12v12h-12v24h-12v36h-12v72h-12v36h-24v60h-12v48h-12v48h-12v24h-12v36h-12v36h12v36h-12v84h-12v168h12v36h-12v36h-12v12h12v96h12v12h-12v36h-12v108h-12v168h-12v12h12v216h-12v24h-12v24h-12v12h12v96h12v12h-12v12h-12v12h-60v-12h-12v-1116h-12v-108h-12v-300h12v-60h12v-36h12v-12h12v-12h12v-24h12v-24h12v-12h-24v24h-12v12h-12v12h-12v-60h12v-24h12v-36h-12v-36h12v-24h12v-24h12v-24h12v-24h12v-24h-12v12h-24v24h-12v24h-12v12h-12v24h-12v36h-12v24h-12v24h-12v24h-12v36h-12v36h-12v36h-12v36h-12v36h-12v48h-12v60h-12v72h-12v168h-12v936h12v288h12v12h12v-72h-12v-1128h12v-96h12v-72h12v-24h24v12h12v36h12v24h24v84h12v1212h12v12h108v-12h12v-12h12v-12h12v-36h-12v-36h-12v-12h36v-12h48v-12h12v24h12v24h-12v12h12v48h12v36h24v12h72v-12h12v-12h12v-1260h12v-96h12v-60h-12v24h-12v48h-12v12h-36v12h24v12h-24v36h-12v12h-12v12h-12v24h-12v24h-12v12h-60v-12h12v-12h-12v-12h12v-12h24v-48h-12v-24h12v-120h24v-60h12v-60h12v-36h12v-24h12v-12h12v-48h12v-12h12v-24h12v-12h12v-24h12v-12h12v-24h12v-12h12v-12h36v-24h12v-12h24v-12h12v-12h12v-12h12v-36h12v-12h12v-12h12v-12h24v-12h12v-12h24v-24h24v-24h24v-24h36v-12h12v-12h36v-24h12v-12h-24v12h-24v12h-12v12h-12v12h-36v12h-24v36h-24v12h-36v24h-12v12h-12v12h-12v12h-12v12h-12v12h-12v12h-12v12h-12v12h-12v24h-12v12h-12v12h-12v12h-24v12h-12v12h-36v24h-12v36h-12v24h-24zM17633 692h-24v12h-24v12h-36v12h-12v12h-36v24h36v-12h48v-12h36v-12h156v12h-12v12h-48v12h-36v12h-36v12h-36v12h-24v12h-24v12h36v12h12v-12h36v-12h36v-12h36v-12h36v-12h48v-12h24v-36h72v-12h84v-12h300v24h60v12h36v12h60v12h36v12h48v12h36v12h36v12h36v12h36v12h24v12h24v12h36v12h12v12h24v12h24v12h24v12h24v12h12v12h24v12h24v12h12v12h24v12h12v12h24v12h12v12h12v12h12v12h24v12h12v12h12v12h12v12h24v12h12v24h24v12h12v24h24v12h12v12h12v24h24v24h12v12h12v12h12v-24h12v-24h-12v-12h-24v-24h-12v-12h-12v-12h-12v-12h-12v-12h-12v-12h-24v-24h-12v-12h-12v-12h-12v-12h-24v-12h-12v-12h-12v-12h-12v-12h-12v-12h-24v-12h-12v-12h-12v-12h-24v-12h-12v-12h-24v-12h-12v-12h-24v-12h-24v-12h-12v-12h-24v-12h-24v-12h-24v-12h-24v-12h-24v-12h-36v-12h-24v-12h-36v-12h-36v-12h-36v-12h-48v-12h-36v-12h-60v-12h-48v-12h-36v-12h96v12h156v12h36v12h36v12h12v12h60v12h12v12h24v12h48v12h12v12h24v12h12v12h12v12h36v12h12v12h24v24h24v12h24v12h12v12h12v-24h24v12h12v12h36v-12h-12v-12h-12v-12h-12v-12h-12v-12h-24v-12h-24v12h-12v-12h-24v-12h-24v-12h-12v-12h-12v-12h-36v-12h-12v-12h-24v-12h-12v-12h-24v-12h-36v-12h-24v-12h-24v-12h-24v-12h-24v-12h-36v-12h-24v-12h-36v-12h-36v-12h-48v-12h-24v12h-12v12h-144v-12h-408v12h-36v12h-72v12h-72v12h-48v12h-72v-12h12zM19457 1568v12h12v36h12v12h12v24h12v24h12v12h12v12h12v48h12v60h12v144h-12v108h12v-84h12v-48h12v-108h36v-24h-12v-24h-12v-60h-12v-36h-12v-12h-12v-36h-12v-96h-12v-36h12v24h12v24h12v36h12v36h12v36h12v36h12v36h12v48h12v60h12v84h-24v24h12v36h12v96h12v1224h12v-60h12v-1284h-12v-84h-12v-72h-12v-48h-12v-48h-12v-36h-12v-36h-12v-36h-12v-24h-12v-36h-12v-24h-12v-24h-12v-36h-12v-12h-24v-24h-12v-12h-12v24h12v24h12v24h12v24h-12v84h-24v-12zM18533 5336h12v-24h12v-12h12v-12h12v-12h12v-24h12v-12h12v-24h12v-24h12v-24h12v-36h12v-36h12v-24h-12v12h-12v12h-12v36h-12v12h-12v-12h-24v12h-12v-12h-12v-12h-24v-12h-12v12h-12v-12h-12v-12h-12v12h-12v-12h-12v-24h-24v-12h-48v-12h-48v-12h-24v-12h-48v-12h-12v-12h-36v24h24v12h12v12h24v24h12v12h12v12h12v12h36v12h12v12h36v36h24v12h-12v12h48v12h24v36h12v12h12v12h12v12h12v12h-12v24h-12v12h12zM18125 5012h12v-36h-12v-12h-12v12h-24v-12h-204v-12h-12v12h-60v12h-12v-12h-12v12h-36v24h-12v12h-48v12h12v24h12v12h12v-12h24v12h24v-24h-12v-12h36v12h-12v12h36v-24h12v12h108v-12h12v12h24v-12h24v-12h48v-12h72zM18305 4856v24h-12v12h12v36h36v-12h24v-12h12v-12h12v-12h12v-12h12v12h12v-36h60v-24h24v-12h24v-12h60v-12h-12v-12h12v-24h24v12h12v-24h-12v-12h-60v12h-24v12h-12v12h-24v12h12v12h-24v12h-12v12h-12v-12h-12v24h-36v12h-24v12h-12v24h-36v24h-12v12h-12v-48zM17873 4604h12v48h12v12h12v12h12v12h12v12h36v24h12v24h12v12h24v12h12v36h36v-24h12v-12h-36v-36h-12v-12h-24v-36h-12v-12h-12v-12h-12v-12h-12v-24h-24v-12h-12v-36h-36v12h-12zM18053 4916v-12h-24v-24h-36v-12h-24v-24h-24v-12h-48v-36h-12v-12h-24v-12h-36v-24h-12v-12h-12v-12h-24v-12h-12v12h-12v48h24v12h48v12h24v24h24v12h12v12h24v12h36v12h12v12h24v12h24v12h12v12zM16949 1496v-12h12v-24h12v-12h12v-12h12v-24h24v-24h12v-24h12v-12h12v-12h12v-12h12v-36h-24v12h-12v12h-12v12h-12v24h-12v12h-12v12h-12v12h-12v12h-12v24h-12v12h-12v12h-24v60h12v-12zM17153 992v12h-12v12h-12v12h-12v12h-12v12h-12v12h-12v24h-12v24h36v-12h24v-12h12v-12h12v-12h12v-12h12v-12h12v-12h24v-12h12v-12h-36v-24h-12v12zM19277 1376v24h-12v-12h-12v-12h-12v24h12v12h12v12h12v12h12v24h12v24h36v12h12v-36h-12v-12h-12v-36h-24v-12h-12v-24z"/></g><g fill="#EAEAEA"><path d="M16841 1856h-60v-12h-36v-72h12v-12h24v-12h48v-12h12v12h12v60h-12v48zm480-876v12h-24v12h-12v12h-12v12h-24v12h-12v12h-12v12h-24v12h-12v12h-12v12h-12v12h-36v12h-36v12h-24v12h-12v12h-24v24h-12v84h-12v12h-12v12h-12v24h-12v12h-12v12h-12v24h-12v48h24v-12h12v-12h12v-12h12v-12h12v-12h12v-24h12v-12h12v-12h12v-12h12v-24h24v-12h12v-12h12v-12h12v-12h12v-24h12v-12h24v-12h12v-12h12v-12h12v-12h12v-12h12v-12h24v-12h12v-12h12v-12h12v-12h24v-12h12v-12h24v-12h12v-12h24v-12h12v-12h24v-12h24v-12h24v-12h12v-12h24v-12h36v-12h24v12h-12v24h-12v12h-36v12h-24v12h-24v12h-24v12h-12v12h-24v12h-24v12h-12v12h-12v12h-12v12h-24v12h-12v12h-12v12h-24v12h-12v12h-12v12h-12v12h-12v12h-24v12h-12v12h-12v24h-12v12h-12v12h-12v12h-12v12h-12v12h-12v12h-12v12h-12v12h-12v12h-12v12h-12v12h-12v24h-12v24h-24v24h-12v12h-12v12h-12v24h-12v36h-24v12h-12v24h-12v12h-12v-84h-24v12h-12v12h-12v36h-12v48h-12v12h-24v12h-12v48h-24v12h-12v72h-12v12h-12v168h12v24h12v24h12v36h12v12h24v-12h12v-12h12v-36h12v-36h12v-60h24v-24h12v-48h12v-36h12v-60h12v-12h12v-48h12v-12h12v-24h12v-24h12v-12h12v-12h12v-12h12v-48h12v-12h24v-12h12v-12h12v-24h12v-12h12v-24h12v-12h12v-12h12v-12h12v-24h24v-12h12v-12h12v-36h12v-12h24v-12h24v-12h12v-12h24v-12h12v-12h12v-12h36v-24h12v-12h12v-12h24v-12h12v-12h36v-24h12v-12h24v-12h12v-12h12v-12h48v-12h48v-12h24v-12h48v-12h672v12h96v12h72v12h60v24h60v12h36v24h36v12h12v12h36v12h36v12h72v12h12v12h60v12h24v12h36v12h12v12h12v-24h-12v-12h-12v-12h-12v-12h-24v-12h-24v-12h-12v-12h-12v-12h-24v-12h-36v-12h-96v-12h-12v-12h-36v-24h-12v-12h-12v-36h-12v-12h-12v-12h-36v-12h-36v-12h-36v-12h-48v-12h-36v-12h-72v-12h-96v-24h-240v12h-12v12h-24v36h-96v-24h-24v-12h-72v12h-60v-12h12v-12h12v-12h60v-12h24v-12h12v-12h12v-12h60v-12h324v12h108v12h48v12h48v12h48v12h36v24h12v24h36v12h24v12h108v-12h-12v-12h-36v-12h-24v-12h-24v-12h-36v-12h-36v-12h-36v-12h-36v-12h-48v-12h-60v-12h-60v-12h24v-12h-48v-12h-360v12h-84v12h-48v12h-60v12h-36v12h-48v12h-24v12h-36v12h-36v12h-12v12h-36v12h-24v12h-24v12h-24v12h-84v12h-24v12h-24v12h-12zM19385 1676h12v12h12v12h12v24h24v12h24v12h12v12h24v48h12v60h-12v24h-12v12h-48v-12h-24v-12h-12v-12h-12v-132h-12v-60zm-360-456v12h12v12h12v12h12v12h24v12h12v24h12v12h12v24h12v12h12v12h12v24h12v24h12v12h24v12h12v48h12v36h24v12h12v24h12v24h12v24h12v12h12v72h12v12h12v24h12v12h12v12h12v108h12v60h12v12h12v12h12v12h12v48h12v48h12v48h12v12h24v-24h12v-48h12v-24h12v-36h24v-24h12v-144h-12v-60h-12v-48h-12v-12h-12v-12h-12v-24h-12v-24h-12v-12h-12v-36h-12v-12h-12v-12h-12v-24h-12v-24h-12v-12h-24v84h-12v-12h-12v-12h-24v-24h-12v-24h-12v-24h-12v-24h-12v-24h-12v-12h-12v-12h-12v-12h-12v-24h-12v-12h-12v-24h-12v-12h-12v-12h-12v-12h-12v-12h-12v-12h-12v-12h-12v-12h-12v-12h-12v-12h-12v-12h-12v-12h-12v-12h-12v-12h-12v36h-24zM17633 692v12h-12v12h72v-12h48v-12h72v-12h72v-12h36v-12h408v12h144v-12h12v-12h-48v-12h-60v-12h-36v-12h-384v12h-96v12h-60v12h-48v12h-36v12h-24v12h-48v12zM19109 1184v12h12v12h12v12h12v12h12v12h12v12h12v12h12v24h12v12h12v12h12v12h12v12h12v12h12v24h24v24h12v12h24v12h12v-48h-12v-24h-12v-12h-12v-24h-12v-12h-12v-12h-12v-24h-12v-12h-12v-12h-12v-24h-24v-24h-12v-12h-12v-12h-24v-24h-12v-12h-24v-24h-12v-12h-24v-12h-12v-12h-12v-12h-12v-12h-24v-12h-12v-12h-12v-12h-12v-12h-24v-12h-12v-12h-24v-12h-12v-12h-24v-12h-24v-12h-12v-12h-72v12h36v12h12v12h12v12h24v12h12v12h24v12h24v12h12v12h24v12h12v12h12v12h24v12h12v12h12v12h12v12h24v12h24v12h12v12h12v12h12v24zM18413 5420h24v-12h12v-12h24v-12h12v-48h-12v-24h-24v-12h-12v-24h-24v-36h-12v-24h-12v-24h-24v-24h-12v-12h-12v-12h-12v-12h-24v-24h-24v-36h-24v-24h-24v36h12v24h12v24h12v24h12v24h12v24h12v24h12v12h12v12h12v60h12v12h24v36h12v24h12v24h12zM18113 5480h60v-24h12v-144h-24v-12h24v-12h-36v-12h-36v12h-12v36h-12v60h-24v48h12v24h12v12h24zM19169 992h-48v24h12v12h12v12h12v12h12v12h12v12h12v12h12v12h12v12h12v12h12v12h12v12h24v12h12v24h12v12h12v12h12v24h12v12h36v-24h-12v-12h-12v-24h-12v-12h-12v-12h-12v-24h-12v-12h-12v-12h-12v-12h-12v-12h-12v-12h-12v-24h-12v-12h-12v-12h-12v-12h-12v-12h-24zM19637 1916h24v-84h-12v-60h-12v-48h-12v-36h-12v-36h-12v-36h-12v-36h-12v-36h-12v-24h-12v-24h-12v36h12v96h12v36h12v12h12v36h12v60h12v24h12v72h12zM16937 1220v-12h12v-24h24v-24h24v-12h12v-12h12v-12h12v-12h12v-12h12v-24h12v-12h24v-12h12v-12h12v-12h12v-12h12v-12h12v-24h-48v12h-12v12h-12v12h-12v12h-12v12h-12v12h-12v12h-12v12h-12v12h-12v12h-12v12h-12v24h-12v12h-12v12h-12v12h-12v24h-12v24zM16709 1532h-12v24h-12v36h-12v36h-12v36h-12v36h-12v60h-12v36h-12v72h12v-24h12v-36h12v-24h12v-48h12v-36h12v-24h12v-36h12v-36h12v-96h-12z"/></g><g fill="#EDD48B"><path d="M17609 5024h-24v-24h-36v-12h12v-60h-12v-12h-12v-12h12v-96h-12v-24h24v-24h24v-36h12v12h24v-12h-12v-12h24v-12h12v-24h24v-24h12v12h12v24h-12v24h-12v24h-12v48h12v-24h12v-24h12v-24h12v-24h12v-12h12v-24h12v-12h12v-12h12v-24h12v-12h12v-12h12v-12h24v-12h12v-12h12v-12h12v-12h24v-12h12v-12h24v-24h-24v12h-12v12h-48v-12h24v-12h-36v-12h12v-12h12v-24h12v-12h-24v12h-36v12h-24v-12h-24v-12h12v-24h-12v-12h12v-12h12v-12h12v-36h-12v24h-12v-60h12v12h12v-24h-36v-12h-12v48h-12v-12h-12v12h-36v-12h-24v-12h12v-24h12v-12h-12v-12h-24v12h-12v-12h-12v12h-24v24h24v12h24v12h-24v12h-12v-24h-24v-12h-12v12h-12v36h12v12h-12v12h-24v-12h-12v-24h24v-48h-24v-12h-12v-12h12v-12h12v-12h-24v12h-12v36h-24v-24h-12v-12h-24v12h-24v-12h-12v-48h12v-12h-12v-12h-12v12h-12v12h12v12h-24v-48h12v-12h-24v-24h24v-24h12v-12h-72v24h-24v-12h12v-12h-24v-12h36v-24h-12v12h-12v-36h-12v-12h36v-24h-12v-12h-48v-48h-24v-12h-12v-12h-60v12h-24v12h-48v-12h-24v36h-12v12h-12v-12h-12v12h-12v24h36v-12h12v84h-12v12h12v24h36v12h-48v12h36v24h12v24h-12v12h12v12h12v12h12v12h12v24h12v12h12v12h-36v24h12v-12h12v24h12v-12h24v12h-12v12h12v24h-12v-12h-12v36h12v-12h12v24h-12v12h-12v12h-12v12h36v-12h12v24h-24v12h-12v12h-12v12h12v12h-12v12h12v12h12v-24h36v24h-12v-12h-12v24h12v12h-24v24h24v12h24v12h12v24h24v48h12v-12h12v-24h12v24h12v12h36v12h-48v24h-12v-12h-12v24h48v12h24v12h-12v12h12v12h36v-12h12v24h12v60h-12v-36h-12v12h-12v12h12v36h12v12h-12v12h-12v12h12v24h24v36h12v36h12v-12h12v-24h24v36h12v12h-12v12h12v48h48v12h24v24h48v12h12zM19349 3776v60h-24v12h-24v12h-12v36h-12v-24h-48v-24h-24v12h-24v-24h-12v12h-12v12h-12v12h-24v-12h-12v24h-12v-24h-24v-12h-24v12h-24v24h-12v12h-24v24h-12v24h-12v12h-12v24h-12v12h-12v-12h-12v12h-12v-48h-12v12h-12v24h-12v-12h-24v12h12v12h-24v-12h-12v24h-36v12h24v12h-12v36h-24v12h-12v-12h-24v60h-12v12h12v12h-24v-24h-36v12h-12v24h-24v12h-12v12h-12v12h24v24h-36v-24h-12v36h-36v-24h-24v24h-12v-12h-12v-12h-12v12h-12v12h-12v12h12v12h12v12h-24v12h-12v12h-12v-24h12v-24h-48v-12h-12v72h-48v24h-12v-24h-12v12h-12v12h-12v-12h-24v12h12v12h24v12h12v24h-12v12h-36v12h24v12h-168v12h108v12h132v12h24v12h36v12h12v12h24v12h24v12h48v-12h12v12h24v12h12v-24h12v-12h24v-36h-12v24h-12v-12h-12v-24h12v-12h12v12h24v-12h-12v-12h36v-12h-12v-12h12v-12h-12v-24h12v-12h12v12h12v24h12v-12h12v12h12v12h12v36h-24v-12h12v-12h-12v-12h-12v24h-24v24h-24v24h-12v12h12v12h24v-12h12v24h12v-24h12v-24h12v-12h36v-36h12v24h12v-60h24v48h12v-12h12v-36h12v-24h-12v-12h-12v-12h12v-12h12v-48h12v12h24v12h36v-12h-24v-36h12v12h36v-12h-12v-12h12v-48h-12v-12h12v-24h12v12h12v-36h12v-12h-12v-24h12v12h36v-12h12v-12h24v-24h24v-48h12v12h12v-12h12v-48h24v-12h12v12h24v-24h12v24h12v-12h36v-12h12v12h48v24h12v-60h12v-36h48v-12h12v-24h12v-48h84v-12h-108v12zM17237 3476v60h-12v48h-12v12h-24v12h-12v-12h-96v-12h-144v12h-72v12h-60v12h-72v12h-36v24h-12v-12h-12v12h-12v12h-96v-12h-24v24h-48v-24h-24v24h-24v12h-12v-12h-36v12h-24v-12h-72v-24h-12v24h-12v-12h-24v12h-12v-12h-24v12h-72v-48h-36v12h-12v24h-12v24h12v12h12v-36h12v24h36v24h300v12h12v-12h120v-12h72v12h84v-12h24v-12h48v-12h96v-12h84v-12h48v-12h12v12h24v-12h12v12h180v12h60v12h12v-12h24v12h84v-12h12v12h12v-12h24v-24h120v-12h12v12h36v-12h72v12h12v-12h12v12h36v12h36v12h24v12h12v-12h12v12h60v-12h24v12h-12v12h24v-12h24v-12h48v12h48v-12h24v12h60v-12h12v12h12v-12h36v-12h84v-24h12v24h24v-12h48v-12h12v12h12v-24h36v12h12v-12h48v-24h12v-12h24v12h24v-12h12v-12h12v-24h12v-12h60v-12h24v-12h24v-24h36v-12h12v-12h24v-12h24v-24h24v-12h-36v12h-24v12h-24v12h-48v24h-12v12h-24v12h-60v12h-36v12h-36v12h-48v12h-12v24h-12v-12h-12v12h-24v12h-12v-12h-48v12h-24v12h-12v-24h-12v24h-48v24h-48v-12h-12v24h-12v-12h-24v-12h-12v24h-12v-24h-12v12h-24v24h-48v-24h-48v-12h-24v12h-24v-12h-60v12h12v12h-24v-36h-72v-12h-12v12h-24v-12h-96v12h-12v-24h-24v12h-12v-12h-84v-12h-24v24h-12v-12h-24v-24h-12v12h-12v-12h-36v-36h-12v-12h-72v-36h-12v12h-12v-24h-24v12h-48v12h-12v-12h-12v12zM18749 3452h24v-12h24v-12h24v-12h60v-24h12v12h12v12h12v-12h36v-12h36v12h24v24h12v72h12v96h60v-12h192v-12h-48v-12h-12v-12h-12v12h-108v-12h-12v-24h-12v-24h-12v-24h-12v-72h-12v-12h24v-12h-12v-12h-12v-12h-12v-12h-12v-12h-12v-24h-12v-60h-12v24h-24v12h-12v12h-24v12h-12v12h-12v12h-24v-12h-12v12h-12v12h-24v12h-12v12h-36v12h-12v12h-24zM17057 3908v-12h-12v-12h24v-12h-48v-12h-12v-12h-48v-24h-48v-12h-12v-12h-12v-24h-72v48h12v12h24v12h48v12h12v12h48v12h12v12h36v12z"/></g><g fill="#BB752A"><path d="M16157 5192v-672h12v-24h-12v-12h12v-276h12v-60h12v-12h-12v-12h-12v-204h12v-24h-12v-60h12v12h12v-12h48v24h-12v12h12v36h12v12h-12v36h-12v12h12v12h-12v36h24v-12h12v132h-12v24h24v12h-12v12h12v24h12v12h12v12h-12v72h12v36h-12v24h12v12h-12v12h12v24h-12v36h12v36h-12v12h24v36h36v12h-12v24h12v36h-12v12h-24v12h36v12h-12v24h-12v12h12v12h-12v12h-12v12h12v12h24v12h12v24h-12v24h-12v12h12v12h12v12h-24v12h12v12h-12v24h12v24h12v12h-12v36h12v12h12v12h12v60h12v24h24v24h12v24h12v12h-24v24h24v36h12v12h-12v12h-12v12h-12v12h12v12h12v24h-12v-12h-12v24h24v24h-12v12h12v24h36v12h-12v24h12v24h-12v12h-12v12h24v48h-12v36h24v48h-24v12h24v36h12v24h12v24h-12v12h12v48h12v12h24v12h-12v12h-12v12h36v-12h12v24h-12v12h24v24h12v12h-12v12h-12v-36h-12v12h-12v36h12v12h24v12h12v12h-12v12h12v36h12v12h24v24h12v12h12v24h12v12h24v12h12v24h12v12h-12v12h-24v24h12v12h24v12h12v12h-12v36h-24v12h24v24h12v36h-24v24h-12v12h-36v24h132v-12h108v-12h12v-72h12v12h12v12h24v-12h-12v-12h-12v-12h-12v-24h-24v-12h-12v-12h12v-24h-24v-12h12v-12h-12v-24h12v-12h-12v-84h12v-12h-48v-12h-12v-36h-24v-12h-12v-24h12v-12h-12v-24h-12v24h-12v-12h-12v-36h12v-24h-24v-12h12v-12h24v-12h-24v-12h-12v-24h12v-12h-24v12h-12v-36h12v-12h-12v-12h-24v-12h-12v-12h24v-12h12v-12h-24v-12h12v-36h-36v-12h12v-24h12v-12h-12v-60h-12v12h-12v-12h-12v-12h-36v-12h12v-12h-12v-24h12v-12h-12v-12h-12v-12h12v-24h-36v-24h12v-48h12v-24h-12v12h-12v-12h-12v12h-12v-24h12v-12h12v-12h-24v-12h24v-24h24v-24h-12v-24h-24v-24h-12v-12h12v-24h12v-24h-24v36h-12v-60h-12v-12h-12v-24h24v-12h12v-12h-24v-96h12v-36h24v-48h-12v-36h-24v-12h-12v-12h12v-24h-12v-24h12v-24h24v-24h-12v-12h-24v12h12v12h-12v12h-12v-12h-12v-24h12v-48h12v-12h-48v-60h-12v-12h12v-24h12v-12h12v-12h-24v12h-12v-12h-12v-36h12v-60h24v-12h-12v-12h-12v-12h12v-12h-12v-48h12v-36h-12v-12h-24v-12h24v-12h-12v-24h-12v-24h-12v-12h-12v-12h12v-12h-12v-12h12v-36h12v-60h-12v12h-12v-36h12v-12h-12v-24h12v-12h-12v-12h-24v12h-12v-24h-12v-12h-12v-12h-24v-12h-12v-36h12v-24h24v-24h-192v84h-12v1368zM19421 6284h132v-12h168v-12h-324v-12h12v-12h12v-12h-36v-12h-12v-24h12v-24h12v-36h12v-12h-12v-12h36v12h12v-36h-36v12h-24v-12h12v-12h-12v-12h24v-12h12v-12h-12v-24h12v-48h12v12h12v-36h24v-24h24v-24h12v-12h24v-12h-12v-12h-12v-12h-12v-12h-24v24h-24v-12h-12v-12h24v-84h12v36h12v-24h12v-24h-12v-48h12v12h24v-36h-12v-24h12v12h12v-36h12v-12h24v-72h36v12h12v12h12v-84h-24v-24h24v12h12v-24h-24v-12h12v-12h12v-24h24v-24h12v-12h12v-12h12v36h12v-60h12v-12h24v-12h-48v-24h12v-12h12v-12h12v36h24v-12h12v-12h-12v-12h-12v-24h48v-12h12v-12h-12v-24h-12v12h-12v12h-12v12h-12v-24h12v-24h-12v-12h-24v-60h-12v-24h12v-12h-12v-48h24v-12h-24v-36h12v12h12v-24h12v-24h12v-24h-12v-12h12v-12h12v36h12v-12h12v-60h24v-12h-12v-12h12v-24h-12v-36h-12v-60h12v12h24v-12h12v-12h12v-12h-12v-24h-12v-12h24v-12h-12v-24h36v-24h-12v-24h-12v-36h12v-96h12v-36h12v-24h12v-12h12v-48h12v-12h-24v-48h12v-36h12v-48h-24v-36h12v-12h12v-60h-12v-24h12v-60h12v-24h-12v-36h12v-24h-12v-12h12v-24h-12v-12h12v-12h12v-12h-24v-12h12v-24h-48v24h12v12h-24v12h-12v108h-12v12h12v24h12v12h-24v48h36v12h-12v12h-12v48h-24v24h-12v12h12v12h24v12h-24v24h12v24h-24v12h-12v24h24v24h-12v24h12v36h-12v12h-12v12h12v12h-12v12h-12v-36h-36v12h24v12h-12v12h12v24h-12v24h36v12h-12v24h-12v-12h-24v12h12v12h-12v12h-12v12h-12v12h-12v24h-12v12h-12v12h-12v24h12v24h12v12h-12v24h36v24h-24v-12h-12v36h-12v12h12v12h12v12h-24v-12h-12v12h-12v12h24v24h-12v12h-12v24h-12v12h-12v12h12v24h24v24h-36v12h-12v12h-12v24h-12v12h24v24h-24v12h12v12h-12v36h-12v-12h-12v36h12v24h12v24h-12v12h-12v-12h-12v-12h-12v36h36v12h-12v24h24v12h-24v12h-12v-48h-24v12h12v12h-12v12h12v24h-24v36h12v12h36v12h-12v12h-60v-12h-12v24h-24v12h12v24h24v24h-12v24h-12v24h-36v12h12v12h-48v36h-12v12h36v12h-24v12h-12v-12h-12v60h-12v-12h-24v12h-12v12h24v12h12v12h-36v12h12v24h-12v12h12v12h-24v24h-24v12h24v24h-24v-12h-12v36h-24v36h-12v-12h-12v48h12v12h-24v24h-24v12h12v24h-12v24h-12v24h-24v36h-24v36h-12v12h24v12h-12v12h-12v36h-12v-12h-24v48h-24v12h-12v36h-12v12h12v12h-36v12h12v12h12v24h-12v-12h-12v12h-24v24h12v12h-24v-12h-12v12h-12v12h12v24h12v24h48v-12h36v12h36v-12h12v12h288zM16565 3032h-12v36h-60v12h-12v12h-24v12h-12v24h-12v24h12v12h60v-12h12v24h12v-24h24v36h12z"/></g><g fill="#F2E19D"><path d="M17969 4316h36v-12h12v12h24v12h48v12h-12v12h24v12h12v-12h12v24h24v-12h-12v-12h24v12h12v12h12v12h-12v12h-48v12h-72v12h-48v12h-24v12h-36v12h-24v-24h48v-24h-12v-12h24v-24h-12v-24h12v12h12v-24h-12v-12h-12v-12zm-912-408h12v-12h24v12h48v-12h24v-12h60v12h12v12h24v48h48v12h12v24h-36v12h12v36h12v-12h12v24h-36v12h24v12h-12v12h24v-24h72v12h-12v24h-24v24h24v12h-12v48h24v-12h-12v-12h12v-12h12v12h12v12h-12v48h12v12h24v-12h24v12h12v24h24v-36h12v-12h24v12h-12v12h-12v12h12v12h24v48h-24v24h12v12h24v-12h12v-12h-12v-36h12v-12h12v12h24v24h12v-12h24v-12h-24v-12h-24v-24h24v-12h12v12h12v-12h24v12h12v12h-12v24h-12v12h24v12h36v-12h12v12h12v-48h12v12h36v24h-12v-12h-12v60h12v-24h12v36h-12v12h-12v12h-12v12h12v24h-12v12h24v12h24v-12h36v-12h24v12h-12v24h-12v12h-12v12h36v12h-24v12h48v-12h12v-12h24v12h24v-12h36v36h12v-12h24v-24h12v-12h60v12h132v-12h-108v-12h-12v-24h36v-12h168v-12h-24v-12h36v-12h12v-24h-12v-12h-24v-12h-12v-12h24v12h12v-12h12v-12h12v24h12v-24h48v-72h12v12h48v24h-12v24h12v-12h12v-12h24v-12h-12v-12h-12v-12h12v-12h12v-12h12v12h12v12h12v-24h24v24h36v-36h12v24h36v-24h-24v-12h12v-12h12v-12h24v-24h12v-12h36v24h24v-12h-12v-12h12v-60h24v12h12v-12h24v-36h12v-12h-24v-12h36v-24h12v12h24v-12h-12v-12h24v12h12v-24h12v-12h12v48h12v-12h12v12h12v-12h12v-24h12v-12h12v-24h12v-24h24v-12h12v-24h24v-12h24v12h24v24h12v-24h12v12h24v-12h12v-12h12v-12h12v24h24v-12h24v24h48v24h12v-36h12v-12h24v-12h24v-60h-48v12h-12v12h-12v12h-36v-12h-12v-12h-12v-12h-156v12h-180v24h-12v12h-12v24h-24v12h-36v24h-24v-12h-24v-12h-12v24h-60v24h-12v-12h-24v24h-12v-12h-12v-12h-24v12h-24v-12h-24v12h-12v12h12v12h-12v36h-12v-24h-12v12h-12v-12h-12v-24h-12v24h-36v24h-12v12h-36v24h-12v12h-12v-24h-12v12h-12v12h-12v24h-12v-12h-24v-12h-12v12h-12v24h-12v-12h-12v-12h-24v12h12v12h-60v-12h-36v12h-12v12h-36v12h-24v-12h-12v-12h-12v-12h12v-12h-12v-12h-12v24h-24v12h-24v-12h12v-12h-24v12h-12v12h12v12h-24v-24h-12v-12h12v-12h-12v-12h-12v-12h-12v12h-36v24h-12v24h12v-12h12v12h12v12h-12v12h-12v24h-12v-12h-12v-12h12v-12h-12v-12h-12v60h-24v-12h12v-12h-12v-12h-12v-24h24v-12h-36v-12h-36v24h-48v-12h-12v12h-12v24h12v12h-36v12h-24v-24h-12v-12h12v-12h-24v24h-12v-48h-12v-12h-24v-12h-36v-12h12v-12h-12v-12h-12v-12h-12v24h-12v-24h-12v-12h-24v-12h-48v-12h-12v-12h-24v12h-12v-12h-48v-12h-24v-12h-36v-12h-48v-12h-24v-12h-48v-12h-108v-24h-72v-36h-60v24h12v12h12v12h48v24h48v12h12v12h48v12h-24v12h12v12zM18857 3416v12h-24v24h-24v12h-24v12h-12v12h-36v24h-24v12h-24v12h-60v12h-12v24h-12v12h-12v12h-24v-12h-24v12h-12v24h-48v12h-12v-12h-36v24h-12v-12h-12v12h-48v12h-24v-24h-12v24h-84v12h-36v12h-12v-12h-12v12h-60v-12h-24v12h-48v-12h-48v12h-24v12h-24v-12h12v-12h-24v12h-60v-12h-12v12h-12v-12h-24v-12h-36v-12h-36v-12h-12v12h-12v-12h-72v12h-36v-12h-12v12h-120v24h84v-12h60v12h60v-12h36v12h12v24h120v12h72v12h288v-12h12v12h24v12h156v-12h84v-12h36v12h24v-12h36v-12h12v-12h132v-12h48v-24h12v12h12v-12h24v12h12v-12h12v-12h96v-12h24v12h48v12h12v12h72v12h24v-12h36v12h12v-12h36v-24h12v12h12v12h48v12h24v12h12v12h12v24h48v12h12v-12h60v12h552v-12h96v-12h24v-12h12v-12h12v24h12v-48h-12v-24h-36v48h-36v12h-96v-12h-12v12h-12v12h-192v-12h-48v12h-12v-12h-72v12h-24v-12h-24v-12h-12v12h-48v-12h-12v-12h-12v-24h12v-24h-12v-12h-180v-12h-48v-12h-192v12h-60v-96h-12v-72h-12v-24h-24v-12h-36v12h-36v12h-12v-12h-12v-12h-12v24zM17609 5024v-60h12v-48h12v-36h12v-48h12v-96h12v-24h12v-24h12v-24h-12v-12h-12v24h-24v24h-12v12h-24v12h12v12h-24v-12h-12v36h-24v24h-24v24h12v96h-12v12h12v12h12v60h-12v12h36v24z"/></g><g fill="#DEB95E"><path d="M16505 3776v24h12v12h12v12h96v12h24v12h12v12h24v12h24v12h12v12h24v12h12v12h12v24h-24v24h12v12h12v12h12v24h12v12h-24v12h12v12h-12v24h12v-12h12v36h-12v60h12v24h12v12h12v60h-12v24h12v-12h12v12h12v12h12v12h-12v36h12v12h-12v12h-12v60h-24v12h24v12h12v12h12v24h12v12h-24v-12h-12v24h24v12h-36v12h-12v12h12v24h-12v12h24v60h24v24h12v24h-12v12h12v12h-12v24h12v-12h24v60h12v-12h12v24h-24v12h24v24h-24v12h12v12h12v12h12v36h24v12h12v12h-12v24h24v12h-36v24h12v48h24v12h-12v36h12v36h-24v12h12v12h-12v24h24v24h-24v12h12v24h24v-12h24v48h-12v36h12v-12h12v24h-12v24h-12v12h12v12h-12v84h24v12h-24v24h24v-12h12v36h12v12h12v12h12v12h-12v24h12v12h12v12h12v12h12v-12h12v12h12v48h12v12h12v12h-12v12h-12v12h24v12h12v-12h12v12h24v12h-24v12h24v12h48v-12h12v-12h12v24h24v12h-12v12h12v12h12v-24h12v24h12v12h12v12h-12v12h24v12h-12v24h12v12h12v-36h36v-24h48v12h12v-24h12v24h24v-24h12v-12h24v36h36v-12h12v-24h-12v-12h-12v-12h12v-12h12v12h12v-12h24v-12h24v12h-12v12h-12v12h-24v12h12v12h-12v36h12v-24h24v-12h48v-12h12v-36h12v-24h12v-12h12v12h36v-36h24v24h12v-12h12v-12h12v24h-12v36h12v-24h12v48h24v-12h12v-12h-12v-36h-12v-12h12v-12h12v12h12v12h12v-12h12v36h12v24h12v12h12v-36h12v12h12v-24h24v-36h12v12h12v-48h12v-24h-12v-12h12v-12h12v24h12v-12h12v24h12v-60h24v24h12v24h12v-12h24v-12h12v12h12v-12h12v-24h12v12h12v12h12v-36h24v12h-12v12h60v-12h12v24h24v-12h36v24h12v-48h12v-24h12v12h12v-12h12v24h12v-12h12v-12h12v-24h-48v12h-60v24h-12v12h-36v-12h-60v-12h-120v-12h108v-12h-168v-12h-48v-12h-36v-12h-24v-12h-24v-12h-24v-12h-24v-12h-12v-12h-24v-12h-12v-12h-12v-12h-12v-12h-12v-12h-12v-12h-12v-12h-12v-12h-12v-12h-12v-12h-12v-24h-12v-12h-12v-24h-12v-24h-12v-24h-12v-36h-12v-36h-12v-24h-12v-180h-12v192h-12v12h-24v-36h-12v24h-12v12h-24v-12h-12v-12h-12v12h-12v24h12v12h-12v12h-12v-48h-24v12h12v12h-24v12h-24v-36h-12v-12h-36v-12h12v-36h-24v12h-12v-12h-12v-24h-12v12h-24v24h-12v-24h-12v-12h-48v-12h-12v-24h12v-12h12v12h12v-12h24v-12h-48v-24h12v-12h-36v-24h12v-24h-12v12h-24v12h-12v12h-12v-24h12v-24h12v-12h-48v-12h36v-12h-12v-24h24v12h12v-24h-12v-24h12v-12h-24v-12h-24v12h-12v-12h-12v-12h12v-12h-36v-36h12v-12h-12v-12h-24v-24h-24v-12h12v-24h-36v-12h12v-24h12v-12h12v-24h-24v24h-12v-12h-12v-12h-36v-12h24v-12h-12v-36h12v12h24v-12h-12v-12h-12v-12h12v-24h-12v-24h-12v-12h-12v-12h12v-12h-12v-36h-12v-12h24v-36h-12v-24h12v-24h-12v-12h-36v24h-12v-48h-12v-36h-12v-60h24v-48h-12v12h-24v-24h-12v-12h-12v-12h12v-12h12v-12h12v-12h-36v-12h12v-12h-12v-24h24v-12h-36v-24h-36v24h-12v-24h-24v-12h-36v-36h-24v-12h-36v-24h-12v-24h12v-12h-12v-12h-96v-12h-108v12h96v12zM18737 5036v72h-12v48h-12v36h-12v24h-12v24h-12v12h-12v24h-12v24h-12v12h-12v12h-12v24h-12v12h-12v12h-12v12h-12v12h-12v12h-12v12h-24v12h-12v12h-24v12h-12v36h12v12h12v-12h36v24h-12v12h24v12h12v36h-12v12h24v-12h12v-36h12v24h12v24h-12v12h-12v12h-24v12h-12v-12h-24v-12h-12v36h12v12h-36v12h48v-24h12v12h12v12h36v12h12v-12h24v-12h12v-12h12v-12h12v24h-12v24h24v-12h24v12h-12v24h12v12h12v-12h12v-12h-12v-12h12v-12h-12v-12h24v24h12v-12h36v-36h12v12h24v-12h12v-12h-12v-24h-12v-12h24v12h24v-24h12v24h12v-12h12v-12h-12v-12h12v-12h24v-12h24v-12h-12v-12h12v-12h-12v-36h12v12h12v12h12v-12h12v-12h-12v-24h12v-12h-24v-12h12v-12h-24v-12h-12v-12h-12v-12h24v-36h-12v-12h12v-12h-12v-48h24v-12h12v-12h12v-36h-24v-24h24v12h24v-36h-12v12h-12v-12h-12v-24h36v-12h-12v-24h12v12h12v-12h24v-12h24v-24h12v-36h12v-12h-12v-12h24v-12h12v-24h-12v-12h-24v-12h36v-12h12v12h24v-12h-12v-12h-12v-12h12v-12h-12v-12h24v-12h-24v-12h-12v-12h-12v-12h24v12h12v12h12v-48h12v-12h12v-12h12v-12h12v-12h24v-12h-12v-24h12v-36h24v-12h-12v-12h12v-12h-24v-24h12v-12h-12v-12h48v-24h12v-12h12v-12h12v-24h-12v-24h12v-24h12v-24h-12v-12h24v-36h-24v-36h12v-12h24v-36h-12v24h-12v-24h-12v-12h12v-36h12v-24h-12v-12h12v-12h-12v-24h-12v-12h12v-12h12v-12h-24v-12h36v-36h12v-12h48v12h12v-24h-12v-12h12v-12h-12v-24h12v-24h12v24h12v-48h12v-36h12v-24h24v-12h-12v-12h12v-12h12v-60h-12v-12h24v-12h-12v-12h-24v-12h-60v-12h-24v48h-12v24h-12v12h-48v36h-12v72h12v12h12v12h-12v12h-48v12h-24v24h-12v12h-12v-24h-12v12h-12v12h12v36h12v12h-12v24h-12v12h-24v12h-24v12h-24v36h12v12h-12v12h-12v24h-12v24h12v12h-12v24h-12v24h-12v12h-12v24h36v12h-48v12h12v12h-12v12h12v12h-12v24h-36v12h-12v12h12v24h-12v12h-24v36h12v12h-24v24h-24v24h12v12h-12v24h-24v12h12v12h-24v12h-12v24h12v12h12v12h12v12h-12v12h12v36h-24v12h12v24h-12v24h-12v24h-24v24h-12v12h-12v12h-12v12h-12v24h-12v12h12v12h-12v72h-48v-48h-12v36zM17597 3344v12h24v24h-24v12h12v12h24v12h-36v-12h-24v-24h-12v-12h-12v-12h-24v12h-12v24h-12v24h12v12h48v12h12v24h24v-12h12v36h12v-24h36v12h12v-12h12v12h12v12h12v-12h24v12h12v12h24v-12h24v12h36v12h108v24h12v-12h24v12h12v-12h24v12h24v24h24v12h24v-12h24v12h12v-12h12v-12h12v24h12v-12h24v-12h24v12h12v-12h24v-12h24v-12h12v12h72v12h36v12h24v-12h-12v-12h48v12h12v-12h36v-36h12v-12h12v12h48v-12h12v-12h24v-12h24v-12h24v-24h12v-12h24v-12h36v-24h-12v12h-48v-12h-12v12h-24v24h-24v-12h-36v12h-24v12h-12v12h-24v-12h-12v24h-12v12h-12v-12h-12v12h-24v-12h-24v-12h-24v12h-24v12h-12v12h-12v12h-24v12h-24v-12h-12v12h-12v-12h-12v12h-12v-24h-12v24h-24v-12h-12v12h-84v12h-36v-24h-12v12h-12v-12h-12v12h-12v12h-12v-12h-24v-12h-24v12h-24v-12h-12v-12h-12v-12h-84v12h-24v-36h-12v-12h-12v-12h-24v-12h-12v-12h-84v-36h-12v-12h-12v-12h-24v12zM19697 3512v96h12v-36h24v-12h12v24h36v-12h12v12h12v12h12v-12h24v24h24v-12h84v12h12v-12h12v-12h12v12h12v12h12v12h48v-12h12v-12h12v-24h-12v-60h24v-12h-12v-24h-12v-24h-12v-24h-12v-24h-24v36h12v84h-60v-12h-24v12h-24v-12h-60v12h-12v-48h-12v12h-96v-12h-24v12h-12v24z"/></g><g fill="#AB6522"><path d="M19865 3752v12h72v24h-12v12h24v12h-12v12h-12v12h12v24h-12v12h12v24h-12v36h12v24h-12v60h-12v24h12v60h-12v12h-12v36h24v48h-12v36h-12v48h24v12h-12v48h-12v12h-12v24h-12v36h-12v96h-12v36h12v24h12v24h-36v24h12v12h-24v12h12v24h12v12h-12v12h-12v12h-24v-12h-12v60h12v36h12v24h-12v12h12v12h-24v60h-12v12h-12v-36h-12v12h-12v12h12v24h-12v24h-12v24h-12v-12h-12v36h24v12h-24v48h12v12h-12v24h12v60h24v12h12v24h-12v24h12v-12h12v-12h12v-12h12v24h12v12h-12v12h-48v24h12v12h12v12h-12v12h-24v-36h-12v12h-12v12h-12v24h48v12h-24v12h-12v60h-12v-36h-12v12h-12v12h-12v24h-24v24h-12v12h-12v12h24v24h-12v-12h-24v24h24v84h-12v-12h-12v-12h-36v72h-24v12h-12v36h-12v-12h-12v24h12v36h-24v-12h-12v48h12v24h-12v24h-12v-36h-12v84h-24v12h12v12h24v-24h24v12h12v12h12v12h12v12h-24v12h-12v24h-24v24h-24v36h-12v-12h-12v48h-12v24h12v12h-12v12h-24v12h12v12h-12v12h24v-12h36v36h-12v-12h-36v12h12v12h-12v36h-12v24h-12v24h12v12h36v12h-12v12h-12v12h324v12h168v-12h216v-12h-48v-12h60v-24h12v-12h-12v-24h-12v-2424h12v-12h-240v12zM16169 6248v12h180v12h312v-12h36v-12h12v-24h24v-36h-12v-24h-24v-12h24v-36h12v-12h-12v-12h-24v-12h-12v-24h24v-12h12v-12h-12v-24h-12v-12h-24v-12h-12v-24h-12v-12h-12v-24h-24v-12h-12v-36h-12v-12h12v-12h-12v-12h-24v-12h-12v-36h12v-12h12v36h12v-12h12v-12h-12v-24h-24v-12h12v-24h-12v12h-36v-12h12v-12h12v-12h-24v-12h-12v-48h-12v-12h12v-24h-12v-24h-12v-36h-24v-12h24v-48h-24v-36h12v-48h-24v-12h12v-12h12v-24h-12v-24h12v-12h-36v-24h-12v-12h12v-24h-24v-24h12v12h12v-24h-12v-12h-12v-12h12v-12h12v-12h12v-12h-12v-36h-24v-24h24v-12h-12v-24h-12v-24h-24v-24h-12v-60h-12v-12h-12v-12h-12v-36h12v-12h-12v-24h-12v-24h12v-12h-12v-12h24v-12h-12v-12h-12v-12h12v-24h12v-24h-12v-12h-24v-12h-12v-12h12v-12h12v-12h-12v-12h12v-24h12v-12h-36v-12h24v-12h12v-36h-12v-24h12v-12h-36v-36h-24v-12h12v-36h-12v-36h12v-24h-12v-12h12v-12h-12v-24h12v-36h-12v-72h12v-12h-12v-12h-12v-24h-12v-12h12v-12h-24v-24h12v-132h-12v12h-24v-36h12v-12h-12v-12h12v-36h12v-12h-12v-36h-12v-12h12v-24h-48v12h-12v-12h-12v60h12v24h-12v204h12v12h12v12h-12v60h-12v276h-12v12h12v24h-12v684h-12v960h-12v60h24v12h48v12z"/></g><g fill="#C48C43"><path d="M16841 5936v12h48v12h-12v84h12v12h-12v24h12v12h-12v12h24v24h-12v12h12v12h24v24h12v12h12v12h12v12h-24v-12h-12v-12h-12v72h-12v12h-108v12h180v12h420v12h468v12h444v-12h660v-12h264v-12h192v-12h-288v-12h-12v12h-36v-12h-36v12h-48v-24h-12v-24h-12v-12h12v-12h12v12h24v-12h-12v-24h24v-12h12v12h12v-24h-12v-12h-12v-12h36v-12h-12v-12h12v-36h12v-12h24v-48h24v12h12v-36h12v-12h12v-12h-24v-12h12v-36h24v-36h24v-24h12v-24h12v-24h-12v-12h24v-24h24v-12h-12v-48h12v12h12v-24h-24v-24h24v-12h-12v-24h-12v-36h12v-12h24v-12h-12v-12h12v-12h12v12h12v-24h12v-12h-12v-24h-12v-12h24v-12h-12v-12h-12v-12h24v-12h-12v-12h36v-24h-24v12h-12v-24h12v-12h12v-36h12v48h12v-24h12v24h12v-48h-12v-12h24v-12h-24v-24h12v-36h-24v-12h12v-12h12v12h24v-84h36v-12h-24v-12h12v-12h-12v-12h-12v-12h12v-36h12v-48h12v24h12v-12h24v-24h-24v-24h-12v-24h12v-12h-12v-12h24v-24h12v-60h-12v-12h12v-60h12v24h12v-12h36v12h12v-24h-12v-12h24v-12h-24v-24h-24v-72h-12v-12h24v24h36v-12h-24v-24h-12v-24h36v-12h-12v-24h-36v-24h-24v-12h-12v-12h24v12h24v-12h24v-12h-12v-24h-12v-36h36v-12h-12v-12h-12v-12h12v-12h12v-36h-12v-12h12v-12h-12v-12h24v12h24v-12h12v-12h-12v-12h-12v-24h24v-12h12v-24h24v-12h12v24h-12v12h24v-24h12v-24h-36v-12h12v-12h24v-12h-12v-24h12v-12h-12v-24h-12v-36h12v24h24v-12h-12v-24h12v12h36v-12h-24v-24h-24v-24h-12v-12h-12v-12h24v12h24v-12h-12v-36h24v-24h-12v-36h12v-12h24v-48h-12v-12h-12v-12h24v-24h-12v-36h-36v24h-12v72h-24v-12h-12v48h12v12h-24v36h-36v12h-12v72h-12v12h-12v48h-12v12h-24v24h12v-12h24v24h-12v24h-12v24h-24v12h48v36h-12v-12h-24v12h-12v12h-12v-12h-12v12h-12v12h12v48h-12v12h24v12h-12v24h12v-12h12v48h-12v-24h-12v24h-12v12h12v12h-12v24h-36v24h12v24h12v12h-12v12h-12v-12h-24v12h-24v-12h-12v24h24v36h-12v48h24v12h-12v12h-12v12h12v12h-24v-12h-12v12h-12v24h-12v12h24v12h-12v12h24v12h-36v12h12v12h12v12h-36v12h12v12h-12v24h-36v12h24v24h-24v12h-12v24h-12v72h-24v36h-12v12h-12v36h-12v24h12v24h12v24h-12v-12h-12v12h-12v24h12v-12h24v24h-24v36h12v24h-12v48h-12v24h-12v24h12v24h-24v-24h-12v-12h-12v24h12v12h-12v12h12v24h-24v36h-12v-12h-12v24h36v12h-12v24h12v12h-12v48h-12v-36h-12v24h-12v48h-12v12h-24v12h12v12h12v24h-12v24h-24v12h-12v12h-24v24h-12v12h12v12h-24v12h12v12h-36v12h-12v12h-12v12h-24v-12h-12v24h12v12h12v12h-12v12h-36v-12h-12v24h-24v24h-12v12h-12v-12h-12v12h-12v12h12v12h12v-12h12v24h-36v12h-12v-12h-12v12h-12v-12h-12v-12h12v-24h-24v24h-12v12h-24v24h-24v12h-12v-24h12v-24h-12v12h-12v24h-36v-12h-12v12h-12v12h-12v-12h-12v24h12v12h-36v12h-24v-12h-12v12h-24v-24h24v-12h-24v-12h-24v-12h-12v-12h-12v-12h12v-24h-12v-12h-12v12h-24v24h12v24h-12v-12h-24v-12h-24v24h12v12h-12v12h-24v-12h-24v-48h-24v12h-12v12h-36v12h12v12h-12v24h-24v12h-12v-24h-12v12h-60v36h-12v-12h-24v12h-12v-24h-12v12h-12v12h-12v12h-12v-24h-12v12h-24v12h-24v-24h12v-24h-12v-12h-24v24h-12v24h-12v-12h-12v12h-12v24h-12v-36h-24v12h-12v12h-24v-24h12v-24h-12v12h-12v-36h-12v36h-12v-24h-12v-12h-12v12h-12v12h12v24h-12v12h-12v-24h-12v-24h-24v24h-12v36h-60v24h-12v-12h-24v12h-12v24h36v24h-12v12h-36v-24h-12v-12h-12v-12h-12v12h-24v12h12v12h12v12h-12v24h-12v-24h-60v24h-12v-12h-36v-12h-24v-24h-12v12h-36v-24h12v-12h-12v-24h-12v24h-12v12h-12v12h12v24h-12v-12h-12v12h-12v12h-12v-36h-12v-12h12v-24h-12v12h-12v36h-12v-12h-12v-12h-24v-12h-12v12h-12v-24h12v-12h-24v-12h-48v12h12v12h-12v12h-12v-24h-12v-12h12v-12h-12v-24h-24v24h-12v-48h12v-12h-12v-12h-12v-12h-12v-12h12v-12h-12v-48h-36v-12h-12v-12h-12v-12h-36v-12h-12v-12h12v-24h12v-36h-12v-24h12v12h12v12h12v-36h-12v-24h-12v-12h36v-12h-12v-12h-12v-12h-12v24h-24v-36h-12v-12h36v-24h-36v-24h-12v-24h-12v-12h24v-24h-12v-12h-12v-36h-36v-24h12v-36h-24v-12h-24v-48h12v-24h-24v-36h-12v-36h12v-24h-12v-24h-12v-12h-24v-12h12v-12h-36v24h-12v12h12v60h-12v12h-12v12h24v24h24v12h-12v12h12v12h12v12h-24v12h-12v24h24v48h12v24h12v12h24v-12h12v24h-24v48h12v-36h12v24h24v48h-12v12h-12v24h-12v48h24v60h12v24h-12v12h24v36h12v24h-24v12h24v12h-12v36h-12v72h24v24h-12v12zM20081 3740h36v12h-12v2424h12v24h12v12h-12v24h-60v12h84v-12h12v-12h12v-12h12v-2508h-12v12h-24v12h-60zM16157 5192h-12v-1368h12v-84h24v-12h-60v-12h-12v-12h-12v-12h-12v1884h12v648h12v12h24v12h72v-12h-48v-12h-24v-60h12v-960h12zM16481 3752h-84v12h12v24h-12v36h12v12h12v12h36v12h12v12h36v12h12v12h-12v24h-12v24h24v12h-12v24h12v-12h12v24h-12v36h-12v12h-12v12h-12v36h12v-12h12v12h48v12h-24v24h12v12h-12v12h24v24h12v12h-12v12h12v36h12v12h-12v12h-12v12h12v24h-12v48h12v12h-12v12h-12v24h12v24h24v24h24v12h-12v24h-12v24h12v-12h12v12h12v24h-12v12h12v12h12v24h-36v36h24v12h12v12h12v24h-12v-12h-12v48h12v12h-12v12h-12v12h36v24h12v-12h12v24h-24v24h-12v12h24v12h12v12h12v12h-24v24h12v-12h12v24h12v12h24v12h-12v24h12v36h-12v24h-12v12h24v12h12v36h12v12h-12v12h-12v12h12v36h60v-12h-24v-12h24v-12h-24v-12h12v-12h12v-12h-12v-24h12v-72h-12v-48h12v-12h-12v-12h-12v-12h-12v-24h12v-12h12v-24h-24v-12h12v-12h-12v-36h12v-24h12v-12h-12v-12h-12v12h-36v-24h12v-24h-12v-12h-12v-24h12v-36h-12v-24h24v-12h-24v-12h36v-48h-12v24h-12v-12h-12v-24h-12v-36h-24v-24h48v-12h-36v-24h12v-36h-24v-48h-12v-12h-12v-24h12v-12h-12v-12h12v-24h12v-12h-24v-12h12v-12h-12v-12h12v-12h-12v-12h-12v-36h-12v-12h36v-12h-12v-12h12v-36h12v-12h-36v-12h-12v-12h12v-12h-12v-12h-12v-24h-12v-48h-12v-12h-12v-12h-48v-24h-12v-12h-12v-12h-12v-12h-12v-36h108v-12h-96zM19709 3236v-12h24v24h24v12h-12v12h12v24h12v-12h12v12h12v60h12v-36h12v12h12v-12h12v12h12v12h12v-12h12v-12h24v12h24v-24h-12v-96h-12v-96h-12v-24h-12v-12h-12v-12h-12v-12h-24v-12h-48v-12h-84v204zM18389 3284h36v-12h12v12h12v-24h12v-12h36v-24h36v-12h12v-12h12v-12h12v12h24v-24h36v-24h12v-24h12v-12h12v-12h36v-24h12v-12h-12v-12h-12v-24h12v-12h-48v-12h-84v12h-24v12h-12v24h12v-12h12v12h12v12h-12v48h-24v24h-48v12h-12v12h-12v24h24v12h-12v12h-24v12h-12v12h12v12h-24v12h-12v-12h-12v24h-12zM17873 3020h-72v12h12v12h-24v12h-12v12h-24v36h-12v12h12v60h-12v12h12v36h24v12h-36v24h24v24h36v-24h12v-36h12v-24h12v-12h-12v-12h12v-84h12v-36h24v-12h12v-12h-12z"/></g><g fill="#DEA541"><path d="M19409 3776v12h60v12h24v12h12v12h-24v12h12v60h-12v12h-12v12h12v12h-24v24h-12v36h-12v48h-12v-24h-12v24h-12v24h12v12h-12v12h12v24h-12v-12h-48v12h-12v36h-36v12h24v12h-12v12h-12v12h12v24h12v12h-12v12h12v24h-12v36h-12v12h12v24h12v-24h12v36h-24v12h-12v36h24v36h-24v12h12v24h-12v24h-12v24h12v24h-12v12h-12v12h-12v24h-48v12h12v12h-12v24h24v12h-12v12h12v12h-24v36h-12v24h12v12h-24v12h-12v12h-12v12h-12v12h-12v48h-12v-12h-12v-12h-24v12h12v12h12v12h24v12h-24v12h12v12h-12v12h12v12h12v12h-24v-12h-12v12h-36v12h24v12h12v24h-12v12h-24v12h12v12h-12v36h-12v24h-24v12h-24v12h-12v-12h-12v24h12v12h-36v24h12v12h12v-12h12v36h-24v-12h-24v24h24v36h-12v12h-12v12h-24v48h12v12h-12v12h12v36h-24v12h12v12h12v12h24v12h-12v12h24v12h-12v24h12v12h-12v12h-12v-12h-12v-12h-12v36h12v12h-12v12h12v12h-24v12h-24v12h-12v12h12v12h-12v12h-12v-24h-12v24h-24v-12h-24v12h12v24h12v12h-12v12h-24v-12h-12v36h-36v12h-12v-24h-24v12h12v12h-12v12h12v12h-12v12h-12v-12h-12v-24h12v-12h-24v12h-24v-24h12v-24h-12v12h-12v12h-12v12h-24v12h-12v-12h-36v-12h-12v-12h-12v24h-48v-12h36v-12h-12v-36h12v12h24v12h12v-12h24v-12h12v-12h12v-24h-12v-24h-12v36h-12v12h-24v-12h12v-36h-12v-12h-24v-12h12v-24h-36v12h-12v-12h-12v-24h-24v12h-24v12h-24v12h-36v12h-36v12h-48v12h-36v12h60v12h36v-12h12v-24h60v-12h48v24h-12v12h-12v12h-12v-24h-12v12h-12v-12h-12v24h-12v48h-12v-24h-36v12h-24v-24h-12v12h-60v-12h12v-12h-24v36h-12v-12h-12v-12h-12v24h-12v12h-12v-12h-12v12h-24v12h-12v-24h-12v-24h-24v60h-12v-24h-12v12h-12v-24h-12v12h-12v12h12v24h-12v48h-12v-12h-12v36h-24v24h-12v-12h-12v36h-12v-12h-12v-24h-12v-36h-12v12h-12v-12h-12v-12h-12v12h-12v12h12v36h12v12h-12v12h-24v-48h-12v24h-12v-36h12v-24h-12v12h-12v12h-12v-24h-24v36h-36v-12h-12v12h-12v24h-12v36h-12v12h-48v12h-24v24h-12v-36h12v-12h-12v-12h24v-12h12v-12h12v-12h-24v12h-24v12h-12v-12h-12v12h-12v12h12v12h12v24h-12v12h-36v-36h-24v12h-12v24h-24v-24h-12v24h-12v-12h-48v24h-36v36h-12v-12h-12v-24h12v-12h-24v-12h12v-12h-12v-12h-12v-24h-12v24h-12v-12h-12v-12h12v-12h-24v-24h-12v12h-12v12h-48v-12h-24v-12h24v-12h-24v-12h-12v12h-12v-12h-24v-12h12v-12h12v-12h-12v-12h-12v-48h-12v-12h-12v12h-12v-12h-12v-12h-12v-12h-12v-24h12v-12h-12v-12h-12v-12h-12v-36h-12v12h-24v-24h24v-12h-24v-84h12v-12h-12v-12h12v-24h12v-24h-12v12h-12v-36h12v-48h-24v12h-24v-24h-12v-12h24v-24h-24v-24h12v-12h-12v-12h24v-36h-12v-36h12v-12h-24v-48h-12v-24h36v-12h-24v-24h12v-12h-12v-12h-24v-36h-12v-12h-12v-12h-12v-12h24v-24h-24v-12h24v-24h-12v12h-12v-60h-24v12h-12v-24h12v-12h-12v-12h12v-24h-12v-24h-24v-60h-24v-12h12v-24h-12v-12h12v-12h36v-12h-24v-24h12v12h24v-12h-12v-24h-12v-12h-12v-12h-24v-12h24v-60h12v-12h12v-12h-12v-36h12v-12h-12v-12h-12v-12h-12v12h-12v-24h12v-60h-12v-12h-12v-24h-12v-60h12v-36h-12v12h-12v-24h12v-12h-12v-12h24v-12h-12v-24h-12v-12h-12v-12h-12v-24h24v-24h-12v-12h-12v-12h-24v-12h-12v-12h-24v-12h-24v-12h-12v-12h-24v-12h-96v-12h-12v-12h-12v-24h-36v36h12v12h12v12h12v12h12v24h48v12h12v12h12v48h12v24h12v12h12v12h-12v12h12v12h36v12h-12v36h-12v12h12v12h-36v12h12v36h12v12h12v12h-12v12h12v12h-12v12h24v12h-12v24h-12v12h12v12h-12v24h12v12h12v48h24v36h-12v24h36v12h-48v24h24v36h12v24h12v12h12v-24h12v48h-36v12h24v12h-24v24h12v36h-12v24h12v12h12v24h-12v24h36v-12h12v12h12v12h-12v24h-12v36h12v12h-12v12h24v24h-12v12h-12v24h12v12h12v12h12v12h-12v48h12v72h-12v24h12v12h-12v12h-12v12h24v12h-24v12h24v12h-36v12h24v12h-12v12h24v12h12v24h12v24h-12v36h12v36h24v24h-12v48h24v12h24v36h-12v24h36v36h12v12h12v24h-24v12h12v24h12v24h36v24h-36v12h12v36h24v-24h12v12h12v12h12v12h-36v12h12v24h12v36h-12v-12h-12v-12h-12v24h12v36h-12v24h-12v12h12v12h36v12h12v12h12v12h36v48h12v12h-12v12h12v12h12v12h12v12h-12v48h12v-24h24v24h12v12h-12v12h12v24h12v-12h12v-12h-12v-12h48v12h24v12h-12v24h12v-12h12v12h24v12h12v12h12v-36h12v-12h12v24h-12v12h12v36h12v-12h12v-12h12v12h12v-24h-12v-12h12v-12h12v-24h12v24h12v12h-12v24h36v-12h12v24h24v12h36v12h12v-24h60v24h12v-24h12v-12h-12v-12h-12v-12h24v-12h12v12h12v12h12v24h36v-12h12v-24h-36v-24h12v-12h24v12h12v-24h60v-36h12v-24h24v24h12v24h12v-12h12v-24h-12v-12h12v-12h12v12h12v24h12v-36h12v36h12v-12h12v24h-12v24h24v-12h12v-12h24v36h12v-24h12v-12h12v12h12v-24h12v-24h24v12h12v24h-12v24h24v-12h24v-12h12v24h12v-12h12v-12h12v-12h12v24h12v-12h24v12h12v-36h60v-12h12v24h12v-12h24v-24h12v-12h-12v-12h36v-12h12v-12h24v48h24v12h24v-12h12v-12h-12v-24h24v12h24v12h12v-24h-12v-24h24v-12h12v12h12v24h-12v12h12v12h12v12h24v12h24v12h-24v24h24v-12h12v12h24v-12h36v-12h-12v-24h12v12h12v-12h12v-12h12v12h36v-24h12v-12h12v24h-12v24h12v-12h24v-24h24v-12h12v-24h24v24h-12v12h12v12h12v-12h12v12h12v-12h36v-24h-12v12h-12v-12h-12v-12h12v-12h12v12h12v-12h12v-24h24v-24h12v12h36v-12h12v-12h-12v-12h-12v-24h12v12h24v-12h12v-12h12v-12h36v-12h-12v-12h24v-12h-12v-12h12v-24h24v-12h12v-12h24v-24h12v-24h-12v-12h-12v-12h24v-12h12v-48h12v-24h12v36h12v-48h12v-12h-12v-24h12v-12h-36v-24h12v12h12v-36h24v-24h-12v-12h12v-12h-12v-24h12v12h12v24h24v-24h-12v-24h12v-24h12v-48h12v-24h-12v-36h24v-24h-24v12h-12v-24h12v-12h12v12h12v-24h-12v-24h-12v-24h12v-36h12v-12h12v-36h24v-72h12v-24h12v-12h24v-24h-24v-12h36v-24h12v-12h-12v-12h36v-12h-12v-12h-12v-12h36v-12h-24v-12h12v-12h-24v-12h12v-24h12v-12h12v12h24v-12h-12v-12h12v-12h12v-12h-24v-48h12v-36h-24v-24h12v12h24v-12h24v12h12v-12h12v-12h-12v-24h-12v-24h36v-24h12v-12h-12v-12h12v-24h12v24h12v-48h-12v12h-12v-24h12v-12h-24v-12h12v-48h-12v-12h12v-12h12v12h12v-12h12v-12h24v12h12v-36h-48v-12h24v-24h12v-24h12v-24h-24v12h-12v-24h24v-12h12v-48h12v-12h12v-72h12v-12h36v-36h24v-12h-12v-48h12v12h24v-72h12v-24h-60v-12h-168v12zM17597 3344h12v-12h24v12h12v12h12v36h84v12h12v12h24v12h12v12h12v36h24v-12h84v12h12v12h12v12h24v-12h24v12h24v12h12v-12h12v-12h12v12h12v-12h12v24h36v-12h84v-12h12v12h24v-24h12v24h12v-12h12v12h12v-12h12v12h24v-12h24v-12h12v-12h12v-12h24v-12h24v12h12v-24h12v12h12v-12h24v-12h36v-12h24v-12h24v-12h12v-12h60v-12h24v-12h12v-12h36v-12h12v-12h12v-12h12v-36h12v-12h12v-12h24v-12h12v-36h12v-12h12v-12h12v-12h24v-12h12v-36h12v-36h12v-24h-12v-12h12v-12h-132v-12h-96v12h48v12h-12v24h12v12h12v12h-12v24h-36v12h-12v12h-12v24h-12v24h-36v24h-24v-12h-12v12h-12v12h-12v12h-36v24h-36v12h-12v24h-12v-12h-12v12h-48v24h-24v-24h-24v12h-36v36h-36v12h-12v-24h-12v12h-12v-12h-12v12h-24v-12h-12v12h-72v12h-24v-12h-12v24h-12v-24h-24v12h-24v12h-12v-24h-24v12h-12v-12h-24v-12h-48v-12h-12v-36h-24v-12h12v-12h-24v24h-12v-24h-12v12h-12v24h-36v-24h-24v-24h36v-12h-24v-36h-12v-12h12v-60h-12v-12h12v-36h24v-12h12v-12h24v-12h-12v-12h276v-12h-420v12h84v12h-24v12h-12v24h-12v12h-12v12h-12v12h12v12h-12v24h-24v12h12v24h-12v12h-12v12h-12v24h-12v24h12v12h-12v12h12v12h-12v36h-12zM19721 3296h12v36h-12v24h-12v12h-12v144h12v-24h12v-12h24v12h96v-12h12v48h12v-12h60v12h24v-12h24v12h60v-84h-12v-36h12v-24h-12v-24h-12v-24h-12v-24h-12v-24h-12v-24h-12v-24h-12v-24h-12v-24h-12v-24h-12v-24h-12v72h12v96h12v24h-24v-12h-24v12h-12v12h-12v-12h-12v-12h-12v12h-12v-12h-12v36h-12v-60h-12v-12h-12v12h-12v-24h-12v-12h12v-12h-24v-24h-24v36h12zM16181 3500h24v-12h12v-12h12v72h36v12h48v-12h60v-12h24v12h24v-12h12v12h12v24h36v-24h12v-12h12v12h24v12h24v12h12v-216h12v-12h-24v48h-24v-12h-12v12h-36v-12h-12v-12h-12v12h-24v-12h-72v-12h-36v-120h-12v24h-12v24h-12v24h-12v12h-12v24h-12v24h-12v24h-12v24h-12v24h-12v24h-12v24h-12z"/></g><path fill="#1C140A" d="M16565 3344h12v12h12v12h12v12h24v12h24v12h36v12h36v12h84v12h192v-12h84v-12h36v-12h36v-12h24v-12h24v-12h12v-12h12v-12h12v-12h12v-24h12v-36h-12v-24h-24v60h-12v12h-12v12h-12v12h-12v12h-24v-12h-48v12h-12v12h-24v12h-312v-12h-12v-12h-24v-12h-12v-24h-12v-12h-12v-12h-12v-12h-36v60h-24v-12h-12v-12h-12v-24h-12v-60h-12v12h-12v84h12z"/><path fill="#D8C593" d="M16721 3428v12h48v12h240v24h48v-24h12v-12h24v-12h48v-12h24v-12h36v96h-12v12h-36v24h-12v24h-168v12h-24v12h132v12h96v12h12v-12h24v-12h12v-48h12v-180h12v-12h12v-12h12v-36h-12v12h-12v24h-12v12h-12v12h-12v12h-12v12h-24v12h-24v12h-36v12h-36v12h-84v12h-192v-12z"/><path fill="#745E42" d="M16613 3452h12v12h12v12h12v12h12v12h24v-12h12v-60h-24v-12h-36v-12h-24z"/></g><path fill="#fff" stroke="#20A8D8" stroke-width="150" stroke-linecap="round" stroke-linejoin="round" d="M4362 1931l996 2365h269v423h-1196v-423h443l-189-431h-1057l-177 431h403v423h-1188v-423h281l838-1942h-642v-423h1219zm-200 681l-361 827h703l-342-827zm2204 1684v-1942h-404v-423h1315c241 0 426 16 554 48s244 90 346 175c167 133 287 298 360 494s109 409 109 637c0 471-114 829-344 1071-229 242-576 363-1040 363h-1300v-423h404zm457-1942v1942h439c320 0 553-86 698-257 145-172 217-422 217-750 0-218-37-398-111-539-77-156-168-261-273-315-106-54-277-81-516-81h-454zm3119-423l550 1477 558-1477h942v423h-315v1942h315v423h-1288v-423h519v-1715l-573 1504h-323l-558-1504v1715h504v423h-1238v-423h277v-1942h-277v-423h907zm2673 0h2108v423h-808v1942h808v423h-2108v-423h842v-1942h-842v-423zm3746 0l1181 1988v-1565h-504v-423h1296v423h-339v2415h-469l-1215-2038v1565h511v423h-1361v-423h392v-1942h-392v-423h900z"/></g></svg>